<?xml version="1.0" encoding="utf-8"?>
<!-- Generator: Adobe Illustrator 23.0.3, SVG Export Plug-In . SVG Version: 6.00 Build 0)  -->
<svg version="1.1" xmlns="http://www.w3.org/2000/svg" xmlns:xlink="http://www.w3.org/1999/xlink" x="0px" y="0px"
	 viewBox="0 0 300 300" style="enable-background:new 0 0 300 300;" xml:space="preserve">
<style type="text/css">
	.st0{fill:#FFFFFF;}
	.st1{fill:url(#SVGID_1_);stroke:#6B2007;stroke-width:3;stroke-linecap:round;stroke-linejoin:round;stroke-miterlimit:10;}
	.st2{fill:#6B2007;}
	.st3{fill:#FFEABC;}
	.st4{fill:#AB4689;}
	.st5{fill:#E75051;}
	.st6{fill:#BC4778;}
	.st7{fill:#D55669;}
	.st8{fill:#B8477D;}
	.st9{fill:#B15BAB;}
	.st10{fill:url(#SVGID_2_);}
	.st11{fill:#BC74BD;}
	.st12{fill:#FFE36E;}
	.st13{fill:#E74D4F;}
	.st14{fill:#E75656;}
	.st15{fill:#E85B5A;}
	.st16{fill:#FBF7E5;}
	.st17{fill:#E1C0A6;}
	.st18{fill:#CB496B;}
	.st19{fill:#896891;}
	.st20{fill:url(#SVGID_3_);}
	.st21{fill:#FFCE28;}
	.st22{fill:#FF4025;}
	.st23{fill:#E07DA8;}
	.st24{fill:#702107;}
	.st25{fill:#17F7ED;}
</style>
<g id="Слой_9">
	<g>
		<g>
			<path class="st0" d="M163.1,12.1c0.1,0,0.1,0,0.2,0c0.1,0,3,0.4,4.8,3.1c1.5,2.4,1.6,5.6,0.3,9.7c-3,9.3-16.5,21.3-24.8,25
				l14.3,8.2L204,46.4c0.1,0,0.2,0,0.4,0c0,0,0.1,0,0.1,0c1.9,0.1,5.7,1.8,6.1,7.3c0.5,6.4-4.9,11.6-5.1,11.8
				c-0.1,0.1-0.2,0.2-0.4,0.3l-29,14.7c1.6,3.9,5.8,15.6,4,25.3c-1.8,9.8-11.6,26.9-18.1,38.2c-1.1,2-2.1,3.7-3,5.2
				c-2.7,4.9-4,9.4-4.6,12.6c0.4-0.3,0.9-0.5,1.3-0.6c0.7-0.3,1.5-0.4,2.3-0.4c0.7,0,1.4,0.1,2.2,0.3c0.4-1.4,1.3-3.1,3.2-4.2
				c1.1-0.6,2.4-0.9,3.8-0.9c2.2,0,4.7,0.7,7.6,2.1c1.5-2.5,3.9-7.1,3.5-10.4c-0.1-0.7-0.2-1.4-0.3-2.1c-0.6-4.3-1.2-8.5,1.7-11.8
				l-3.9-8.7c-0.1-0.2-0.1-0.5-0.1-0.7c0-0.3,0.6-7.6,6.2-8.4c0.2,0,0.4,0,0.5,0c4.7,0,7.4,9,8.4,12.9c5.5,1.7,35,11.9,51.1,32.6
				c8.3,10.6,17.5,24,14.5,26.9c-0.3,0.3-0.7,0.4-1,0.4c-0.1,0-0.1,0-0.2,0c-0.4-0.1-0.8-0.3-1.1-0.7c-3-4.6-12.1-16.4-18-16.4
				c0,0,0,0-0.1,0c-9.4,0.2-19.5,1.4-19.8,14.5c-0.3,10.9,1.5,14.4,2.2,15.2c0.3,0.2,0.4,0.4,0.5,0.5c0.5,0.5,0.6,1.3,0.2,1.9
				c-0.3,0.4-0.8,0.7-1.2,0.7c-0.2,0-0.4,0-0.6-0.1c-0.2-0.1-0.6-0.4-1-0.8c-2.4-2-10.7-8.8-18.6-8.8c-2,0-4,0.4-5.8,1.5l-2.7,1.8
				l-2.2,4.9c1.5,2,5.1,7.6,4.8,14.5c-0.2,6.4-0.2,10.4-0.1,11.5c1.1,1.8,7,10.7,17.6,10.7c0.7,0,1.4,0,2.1-0.1
				c4.6-0.5,7.9-1.1,10.4-1.8c-4.4-0.5-9.7-1.7-12-4.7c-1.3-1.7-1.6-3.7-1-5.9c0.9-3,3.5-3.7,5.9-4.2l5.4-1.3c0.7-0.2,0.9-0.3,1-0.4
				c0-0.1-0.3-0.7-0.9-1.1l-0.4-0.3c-1-0.7-2.4-1.7-2.7-3.4c-0.2-1.3,0.3-2.7,1.5-3.7c0.8-0.7,1.8-1.1,2.6-1.5l0.1,0
				c3-1.3,6.6-3.2,8.8-6.4c1.9-2.8,2.6-6.6,2-10.8c-0.6-4-2.3-7.9-4-11.1c-0.3-0.6-0.1-1.4,0.4-1.9c0.3-0.2,0.6-0.3,0.9-0.3
				c0.4,0,0.7,0.1,1,0.4c5.4,4.7,9.3,9.3,11.9,14.1c1,1.8,1.8,3.7,1.5,5.8c-0.1,0.9-0.5,1.8-0.8,2.5c-0.3,0.8-0.6,1.5-0.6,2.1
				c0,0.7,0.5,1.6,1.3,2.2c0.8,0.6,1.8,1,2.8,1.5l0.4,0.2c4.7,2.1,9.1,4.8,13,8.1c0.8,0.6,2.8,2.4,2.5,4.7c-0.3,2.4-2.9,3.5-3.9,3.9
				l-5.7,2.4c-0.5,0.2-1.5,0.6-1.7,1.1c-0.1,0.4,0.3,1,0.9,1.9c0.4,0.6,0.9,1.2,1.2,2c1,2.4,0.1,5.5-2.2,7.3
				c-1.4,1.1-3.3,1.7-5.3,1.7c-0.6,0-1.1,0-1.7-0.1c-2.3-0.3-4.4-1.3-6.2-2.1c-1-0.4-2.1-0.7-3.2-1.1c-0.7-0.2-1.3-0.4-2-0.6
				c-3.6,12.6-18.5,33.8-53,33.8c-0.1,0-0.2,0-0.4,0c-26.4-0.1-37.7-9.3-41.9-14.2c-1.5,5.5-4.8,11.7-5.6,13.2
				c-0.2,4.4-1.8,7.8-1.8,7.9c-0.2,0.5-0.8,0.9-1.4,0.9c-0.1,0-0.2,0-0.2,0c-2.1-0.3-4-1.2-5-1.7l-1.5,0.7c-2,4.7-6,7.1-6.2,7.2
				c-0.2,0.1-0.5,0.2-0.8,0.2c-0.4,0-0.7-0.1-1-0.4c-3-2.7-3.8-5.7-4-7.4l-0.3,0c0,0-0.1,0-0.1,0c-1.4,0-2.1,3.2-2.2,4.1
				c-0.1,0.6-0.5,1.1-1.2,1.3c-0.1,0-0.2,0-0.3,0c-0.5,0-1-0.3-1.3-0.7c-4.7-7.5-2.6-11.7-1.4-13.3c-0.6-4.8,0.3-9.5,0.9-12
				c-6.8-0.2-12.1-2.4-15.6-6.4c-6.1-6.9-4.7-16.8-4.7-17.2c1.3-13.9,9.4-20.4,11.9-22.2l0.1-1.9c-6.1,5.2-13.1,5.7-15.6,5.7
				c-0.5,0-0.9,0-0.9,0c-0.2,0-0.4-0.1-0.6-0.2c-12.2-6.6-11.7-22.2-11.7-22.9c0.4-5.9-0.5-8.6-1.4-9.1c-2.6-1.6-6.7-6.6-4-13.9
				c2-5.3,5.4-7.3,7-8c1-2.9,4.8-4.2,5.5-4.4c1.8-0.7,3.3-1,4.7-1c4.3,0,6.8,2.7,7.7,4.6c0.1,0.2,0.1,0.4,0.1,0.6
				c1-0.3,1.9-0.4,2.8-0.4c2.9,0,5.4,1.4,6.6,2.4c0.4,0.4,0.6,1,0.5,1.5c-0.2,0.6-0.6,1-1.2,1.1c-2.5,0.4-3.1,3.3-3.2,4
				c0.1,1,0.7,5.8,1.1,9.9c0.2,1.9-0.1,4.5-0.4,6.9c1.3-2,2.9-4.5,4.8-7.7c4.4-7.4,10.5-9.9,14-10.7c-2.1-3.2-2.4-6.6-2.3-8.5
				c-3.5-0.3-12.8-1.8-28.2-8.9c-18.1-8.3-26.9-23.9-28.7-27.3c-8.3-2.2-11.7-8.1-13.1-12.6c-2.5-8.1-0.2-17.2,3.3-21
				c1.8-1.9,3.9-2.6,6.1-2.6c3.5,0,7.1,1.8,9.4,3.3c0.3-29.6,28.3-43.9,53-53c21.5-8,51.4-25.7,51.7-25.9
				C162.5,12.1,162.8,12.1,163.1,12.1 M59.2,95.5c-0.3,0-0.7-0.1-0.9-0.3c-0.1-0.1-5.4-4.3-9.9-4.3c-1.5,0-2.9,0.4-4,1.6
				c-2.9,3.1-4.7,11.3-2.6,18c1.2,4,4.2,9,11.6,10.8c0.4,0.1,0.8,0.4,1,0.8c0.1,0.2,8.6,17.8,27.5,26.5c18.3,8.4,27.7,8.7,28.5,8.7
				c0,0,0,0,0.1,0c0,0,0,0,0,0c0.4,0,0.8,0.2,1.1,0.5c0.3,0.3,0.4,0.8,0.3,1.2c0,0.2-0.9,5.5,3.1,9.7c0.4,0.4,0.5,1.1,0.3,1.6
				c-0.2,0.5-0.7,0.9-1.3,0.9c-0.3,0-8.8,0.5-14.2,9.7c-6,10-8.9,13.6-9,13.7c-0.3,0.4-0.7,0.5-1.2,0.5c-0.2,0-0.5-0.1-0.7-0.2
				c-0.6-0.3-0.9-1-0.8-1.7c0-0.1,2.1-8.5,1.7-12.8c-0.4-4.5-1.1-9.9-1.1-10c0-0.1,0-0.2,0-0.3c0.1-1.4,0.9-3.9,2.7-5.4
				c-0.7-0.3-1.5-0.4-2.4-0.4c-1.1,0-2.3,0.3-3.5,1.1c-0.2,0.2-0.5,0.2-0.8,0.2c-0.3,0-0.6-0.1-0.9-0.3c-0.2-0.2-1.5-1.1-1.4-2.6
				c0-0.3,0.1-0.8,0.4-1.2c-0.7-0.8-2-2-4.4-2c-1,0-2.3,0.2-3.7,0.8c0,0-0.1,0-0.1,0c-0.9,0.2-3.5,1.3-3.6,2.8
				c-0.1,0.6-0.5,1.2-1.2,1.3c-0.1,0-3.8,1-5.9,6.5c-2.1,5.4,0.9,9.1,2.8,10.3c2.3,1.4,3.2,5.3,2.8,11.8c0,0.1-0.4,14.1,9.9,20
				c0.1,0,0.2,0,0.3,0c2.3,0,10.4-0.5,16.2-7.4c0.3-0.3,0.7-0.5,1.1-0.5c0.2,0,0.4,0,0.5,0.1c0.6,0.2,1,0.8,1,1.5l-0.2,6.5
				c0,0.5-0.3,1-0.8,1.2c-0.4,0.2-9.8,5.9-11.1,20.4c0,0.2-1.2,9,4,14.9c3.2,3.6,8.1,5.4,14.6,5.4c0.2,0,0.4,0,0.6,0
				c0.5,0,0.9,0.2,1.2,0.6c0.3,0.4,0.4,0.9,0.2,1.4c0,0.1-2.2,6.8-1.2,13.3c0.1,0.5-0.1,1-0.5,1.4c-0.1,0.1-2.2,2.1-0.3,6.9
				c0.8-1.6,2.1-3,4-3c0.2,0,0.4,0,0.6,0l1.5,0.2c0.8,0.1,1.4,0.8,1.3,1.6c0,0.1-0.2,2.8,2.2,5.5c1.2-0.9,3.2-2.9,4.2-5.6
				c0.1-0.4,0.4-0.7,0.8-0.8l2.7-1.3c0.2-0.1,0.4-0.1,0.6-0.1c0.3,0,0.5,0.1,0.8,0.2c0,0,1.7,0.9,3.6,1.5c0.4-1.3,1.1-3.5,1.1-6
				c0-0.2,0.1-0.5,0.2-0.7c0.1-0.1,5.5-10,6.1-16c0.1-0.7,0.6-1.2,1.2-1.3c0.1,0,0.2,0,0.3,0c0.6,0,1.1,0.3,1.4,0.8
				c0.1,0.1,8,15.5,41.4,15.6c0.1,0,0.2,0,0.3,0c32.7,0,46.7-19.8,50.1-31.6c-1,0.8-5.2,3.4-17.7,4.7c-0.8,0.1-1.6,0.1-2.4,0.1
				c-13.3,0-20.1-12-20.4-12.5c-0.1-0.2-0.2-0.4-0.2-0.7c0-0.2-0.1-4.2,0.1-12.1c0.3-7.3-4.7-13.1-4.7-13.2
				c-0.4-0.4-0.5-1.1-0.2-1.6l2.7-6.1c0.1-0.3,0.3-0.5,0.6-0.6l3.1-2c2.4-1.4,4.9-2,7.4-2c6.1,0,12.2,3.4,16.3,6.2
				c-0.5-2.7-0.9-6.5-0.7-11.8c0.5-17.1,15.5-17.3,22.8-17.4c0,0,0.1,0,0.1,0c4.6,0,9.7,4.5,13.8,9c-2.1-3.4-5.4-8.1-10.3-14.3
				c-16.8-21.6-50.1-31.7-50.4-31.8c-0.5-0.2-0.9-0.6-1-1.1c-1.2-5.5-3.9-11.4-5.7-11.4c0,0-0.1,0-0.1,0c-2.7,0.4-3.4,4.1-3.6,5.3
				l4.1,9.2c0.3,0.6,0.1,1.3-0.3,1.7c-2.6,2.4-2.1,5.8-1.5,10c0.1,0.7,0.2,1.4,0.3,2.1c0.7,5.8-4.5,13.3-4.7,13.6
				c-0.3,0.4-0.8,0.6-1.2,0.6c-0.2,0-0.5-0.1-0.7-0.2c-3-1.6-5.5-2.4-7.4-2.4c-0.9,0-1.7,0.2-2.3,0.5c-2,1.1-2.1,3.8-2.1,3.8
				c0,0.5-0.3,1-0.8,1.2c-0.2,0.1-0.5,0.2-0.8,0.2c-0.2,0-0.5-0.1-0.7-0.2c-0.9-0.5-1.8-0.7-2.6-0.7c-0.4,0-0.9,0.1-1.2,0.2
				c-2,0.7-3,2.9-3,3c-0.2,0.6-0.8,0.9-1.4,0.9c-0.1,0-0.2,0-0.3,0c-0.7-0.1-1.2-0.8-1.2-1.5c0-0.4,0.1-8.8,5.5-18.6
				c0.8-1.5,1.8-3.3,3-5.2c6-10.5,16-28,17.7-37.3c2-10.7-4.3-24.7-4.4-24.9c-0.3-0.7,0-1.6,0.7-2l30-15.2c0.8-0.8,4.4-4.9,4.1-9.3
				c-0.3-3.8-2.4-4.4-3.1-4.6l-46.6,11.9c-0.1,0-0.2,0-0.4,0c-0.3,0-0.5-0.1-0.8-0.2l-17.7-10.2c-0.6-0.3-0.8-0.9-0.7-1.6
				s0.6-1.1,1.2-1.2c6.3-1,22.8-14.6,25.8-24.1c1-3.1,1-5.6,0-7.1c-0.7-1-1.6-1.5-2.2-1.7c-4.1,2.4-31.4,18.3-51.7,25.8
				c-24.6,9.1-52.5,23.3-51,53c0,0.6-0.3,1.1-0.8,1.4C59.6,95.5,59.4,95.5,59.2,95.5 M227.2,234.9c0.5,0,1,0,1.3,0c0,0,0,0,0.1,0
				c0.6,0,1.1,0.3,1.4,0.9c0.1-0.2,0.4-0.4,0.6-0.6c0.2-0.1,0.4-0.2,0.7-0.2c0.2,0,0.4,0,0.6,0.1c1,0.4,2.1,0.7,3.2,1.1
				c1.2,0.3,2.4,0.7,3.6,1.2c1.8,0.8,3.6,1.6,5.5,1.8c0.4,0.1,0.8,0.1,1.2,0.1c1.4,0,2.6-0.4,3.5-1c1.2-0.9,1.7-2.5,1.2-3.7
				c-0.2-0.4-0.5-0.9-0.9-1.4c-0.9-1.2-1.9-2.7-1.3-4.6c0.6-1.8,2.4-2.6,3.4-3l5.7-2.4c0.5-0.2,2-0.8,2.1-1.6c0.1-0.5-0.4-1.1-1.4-2
				c-3.7-3.1-7.9-5.7-12.3-7.6l-0.4-0.2c-1.2-0.5-2.4-1-3.4-1.9c-1.6-1.2-2.5-2.9-2.5-4.5c0-1.3,0.4-2.4,0.9-3.3
				c0.3-0.6,0.5-1.2,0.6-1.8c0.2-1.2-0.5-2.6-1.2-3.9c-1.5-2.7-3.4-5.4-5.9-8.1c0.5,1.6,1,3.3,1.2,5c0.7,4.9-0.2,9.5-2.5,12.9
				c-2.6,3.8-6.7,5.9-10,7.4l-0.1,0.1c-0.7,0.3-1.3,0.6-1.8,1c-0.3,0.3-0.5,0.7-0.5,1c0.1,0.4,0.8,0.9,1.5,1.4l0.4,0.3
				c1.7,1.2,2.9,3.3,1.8,5.2c-0.7,1.2-2.1,1.5-2.8,1.7l-5.4,1.3c-2.4,0.6-3.4,0.9-3.7,2.2c-0.4,1.3-0.2,2.4,0.5,3.3
				C214.5,234.2,222.8,234.9,227.2,234.9 M163.1,2.1c-2.1,0-4.1,0.6-5.9,1.6c-0.3,0.2-29.4,17.5-50,25.1
				c-10.7,4-26.4,10.4-38.6,20.5C58.6,57.4,52.2,67,49.3,77.9c-0.4,0-0.8,0-1.1,0c-5.3,0-9.9,2-13.4,5.8c-6.5,7-8.8,19.9-5.5,30.7
				c2.6,8.4,8.1,14.6,15.8,17.9c3.1,5,8.8,13,17.9,20c-0.7,0.7-1.5,1.4-2.1,2.3c-3.1,2.1-6.8,5.7-9.2,11.9
				c-3.7,9.7-0.4,18.3,4.8,23.3c0,0.6,0,1.5-0.1,2.6c0,0.1,0,0.2,0,0.2c-0.1,2.3-0.3,22.7,17,32.1c0.5,0.3,1,0.5,1.5,0.7
				c-0.7,2.4-1.2,5.1-1.5,8c-0.3,2.5-1.4,15.3,7.1,24.9c2.4,2.8,6.3,5.9,12,7.9c0,0.6,0,1.2,0,1.8c-1.8,4.4-2.7,11.5,3.1,20.7
				c2.1,3.4,5.8,5.3,9.7,5.3c0.6,0,1.2,0,1.8-0.1c2,1.7,4.6,2.6,7.3,2.6c2.1,0,4.2-0.6,6-1.7c0.7-0.4,3.2-2.1,5.7-4.9
				c0.1,0,0.1,0,0.2,0c0.6,0.1,1.2,0.1,1.8,0.1c4.4,0,8.5-2.6,10.4-6.6c0.4-0.8,2-4.4,2.6-9.3c0-0.1,0.1-0.1,0.1-0.2
				c8.1,4.4,20.1,8.2,37.6,8.3l0.4,0c17.4,0,32.7-5,44.3-14.4c5.8-4.7,10.7-10.6,14.2-16.8c1.4,0.5,2.9,0.9,4.5,1.1
				c1.1,0.2,2.1,0.2,3.1,0.2c4.3,0,8.2-1.3,11.4-3.7c4.4-3.4,6.8-8.7,6.5-14c6.3-3.1,8.3-7.7,8.8-11.2c0.4-2.9,0.2-8.6-5.9-13.8
				c-3.9-3.3-8.1-6-12.6-8.3c0.1-1,0.1-2,0-2.9c0.2,0,0.4,0.1,0.6,0.1c0.4,0,0.9,0.1,1.3,0.1c3,0,5.8-1.1,7.9-3.2
				c2.1-2,5.2-6.5,2.9-14.1c-0.8-2.5-2.1-5.3-4.1-8.7c-2.8-4.7-6.9-10.5-12.2-17.4c-14.9-19.1-39.5-30-50.9-34.2
				c-2.5-7.1-5.8-11-9.2-13.1c0-0.1,0-0.2,0.1-0.3c1.4-7.7,0.1-15.8-1.6-22.2l21.3-10.8c1-0.5,1.9-1.2,2.8-2c1.5-1.4,9-9.2,8.2-19.8
				c-0.8-10.4-8.4-16.2-15.5-16.6c-0.2,0-0.4,0-0.6,0c-0.9,0-1.9,0.1-2.8,0.3l-35.8,9.1c5.4-5.4,10.1-11.7,12.1-17.9
				c2.8-8.8,0.8-14.7-1.4-18.2c-3.2-4.9-8.2-7.2-12-7.6C164,2.1,163.5,2.1,163.1,2.1L163.1,2.1z M59.2,105.5c1.8,0,3.6-0.4,5.2-1.3
				c4-2.1,6.5-6.3,6.3-10.9c-1-18.4,12.3-31.3,44.4-43.1c4.6-1.7,9.6-3.8,14.6-6.1c-0.5,1-0.9,2.1-1.1,3.2
				c-0.9,4.8,1.3,9.6,5.5,12.1l17.7,10.2c1.8,1,3.7,1.5,5.8,1.5c1,0,1.9-0.1,2.8-0.4l11.7-3l-3.1,1.6c-5.5,2.8-7.8,9.4-5.3,15
				c1.9,4.4,4.7,13.4,3.6,18.9c-1.4,7.7-11.7,25.6-16.6,34.2l-0.1,0.2c-1.1,1.9-2.1,3.7-2.9,5.2c-6.6,11.8-6.8,22.3-6.8,23.5
				c0,5.4,3.9,10.2,9.2,11.3c0.8,0.2,1.5,0.2,2.3,0.2c3,0,5.9-1.2,8-3.2c0.3,0,0.6,0,0.9,0c2,0,4-0.5,5.7-1.5
				c1.3-0.7,2.4-1.7,3.3-2.8c1.6,0.8,3.3,1.2,5,1.2c3.7,0,7.2-1.8,9.4-4.9c1.8-2.6,7.6-11.6,6.5-20.6c-0.1-0.8-0.2-1.6-0.3-2.3
				c-0.1-0.4-0.1-0.8-0.2-1.2c6.9,2.6,20.7,8.5,31.8,17.6c-1.6,0.4-3.2,1-4.8,1.8c-8.1,3.8-13.1,10.9-14.3,20.3
				c-1.9-0.4-3.9-0.6-5.9-0.6c-4.5,0-8.7,1.1-12.5,3.4c-0.1,0.1-0.2,0.1-0.3,0.2l-3.1,2c-1.8,1.2-3.3,2.9-4.2,4.9l-2.7,6.2
				c-1.8,4-1.1,8.7,1.6,12c0.7,0.9,2.5,3.8,2.4,6.5c-0.3,8.3-0.1,12.6-0.1,12.8c0.1,1.8,0.6,3.6,1.4,5.2c0.9,1.7,9.2,15.8,25.7,17.5
				c-6.3,4-15,6.9-26.5,6.9l-0.3,0c-25-0.1-32.1-9.7-32.7-10.4c-2-3.7-5.9-6-10.1-6c-0.7,0-1.3,0.1-1.9,0.2c0,0,0,0-0.1,0
				c-5,0.9-8.9,5.1-9.4,10.2c-0.2,2.4-2.7,8.2-4.9,12.1c-0.1,0.1-0.1,0.2-0.2,0.3c-0.6,0.2-1.1,0.4-1.7,0.6l-1.8,0.9
				c-0.2-0.1-0.4-0.2-0.6-0.3c0-2.8,0.7-5.7,1-6.7l0,0c1.1-3.5,0.5-7.4-1.7-10.4c-2.2-2.9-5.5-4.6-9.1-4.7c-0.1,0-0.1,0-0.2,0
				c-0.1,0-0.1,0-0.2,0c-0.2,0-0.3,0-0.5,0c-2,0-5.6-0.3-7.1-2c-1.6-1.8-1.7-5.5-1.5-7c0-0.1,0-0.2,0-0.4c0.8-8.9,5.8-12.4,6.3-12.7
				c3.4-2,5.5-5.5,5.6-9.5l0.2-6.5c0.2-4.6-2.4-8.8-6.5-10.8c1.6-2.3,3.7-5.6,6.4-10.1c2.5-4.2,5.8-4.8,6.3-4.8
				c4.4-0.3,8.3-3.1,9.9-7.2c1.7-4.2,0.8-9-2.4-12.3c-0.4-0.4-0.4-1.1-0.4-1.3c0.5-3.3-0.4-6.6-2.6-9.2c-2.2-2.6-5.4-4.1-8.8-4.1
				c0,0,0,0,0,0c-0.8,0-8.9-0.7-24.4-7.8c-15.2-6.9-22.5-21.4-22.7-21.8c-1.5-3.2-4.3-5.4-7.7-6.2c-2.4-0.6-3.7-1.7-4.4-4
				c-0.5-1.8-0.5-3.7-0.3-5.3c0.4,0.2,0.7,0.5,1,0.7C54,104.6,56.6,105.5,59.2,105.5L59.2,105.5z M73.6,173.8c1-0.4,2-0.9,2.8-1.6
				c0.5,0.4,1,0.9,1.5,1.2c0.4,0.3,0.7,0.5,1.1,0.7c0.2,1.9,0.6,4.7,0.8,7.2c0.1,0.8-0.1,2.6-0.5,4.7c-0.5-4.2-1.9-9-5.8-12.2
				C73.6,173.9,73.6,173.8,73.6,173.8L73.6,173.8z M201.8,218.9c0-0.4,0-0.8,0-1.3c0.2-4.9-0.9-9.2-2.3-12.8
				c2.4,0.7,5.6,2.4,8.7,4.8c-0.8,1.6-1.2,3.4-1.3,5.2C205.1,215.8,203.3,217,201.8,218.9L201.8,218.9z M233.7,218.7
				c0.5-0.4,1-0.7,1.5-1.1c0.1,0.1,0.2,0.2,0.3,0.3c2,1.6,4,2.4,5.5,3.1c-1.1,1.3-2,2.9-2.5,4.6c-0.1,0.4-0.2,0.8-0.3,1.1
				c-0.1,0-0.2-0.1-0.3-0.1c0,0,0,0,0,0c-0.8-0.2-1.6-0.5-2-0.6c-0.8-0.4-1.7-0.6-2.6-0.8C233.9,223.1,234,220.9,233.7,218.7
				L233.7,218.7z"/>
		</g>
	</g>
	<path class="st0" d="M189.7,237.8c4.6,5.2,11.3,9.8,17.9,7.8c5.2-1.6,8.4-6.7,10.6-11.7c3.9-9,5.8-18.8,5.6-28.6
		c-0.2-10.6-3.5-22.3-12.6-27.8c-11.4-7-32.4-2.6-34.8,11.9C173.5,206.3,178.3,224.8,189.7,237.8z"/>
</g>
<g id="Слой_7">
	<linearGradient id="SVGID_1_" gradientUnits="userSpaceOnUse" x1="149.7985" y1="274.4413" x2="150.2332" y2="38.8249">
		<stop  offset="0" style="stop-color:#FA6F00"/>
		<stop  offset="0.4573" style="stop-color:#FCB54B"/>
		<stop  offset="1" style="stop-color:#F97410"/>
	</linearGradient>
	<path class="st1" d="M231.2,236.5c-2.7,12.1-17.4,34.4-52.3,34.3c-34.9-0.1-42.7-16.5-42.7-16.5c-0.6,6.4-6.3,16.6-6.3,16.6
		c-0.1,4.3-1.7,7.7-1.7,7.7c-2.7-0.4-5.2-1.9-5.2-1.9l-2.7,1.3c-1.7,4.6-5.8,7-5.8,7c-4-3.5-3.5-7.6-3.5-7.6l-1.5-0.2
		c-3.3-0.4-4.1,5.3-4.1,5.3c-5.3-8.4-1.1-12-1.1-12c-1.1-6.9,1.3-14,1.3-14c-24,0.4-20.8-21.9-20.8-21.9
		c1.4-15.6,11.9-21.6,11.9-21.6l0.2-6.5c-7.4,8.7-18.1,7.9-18.1,7.9C67.4,208.3,68,193,68,193c0.2-4,0.1-9.1-2.1-10.5
		c-2.2-1.4-5.8-5.7-3.4-12.1c2.4-6.4,6.9-7.4,6.9-7.4c0.3-2.9,4.7-4.1,4.7-4.1c7.9-3.1,10.5,2.8,10.5,2.8c-1.8,1,0,2.3,0,2.3
		c5.3-3.3,10,0.8,10,0.8c-4,0.6-4.5,5.4-4.5,5.4s0.7,5.4,1.1,10.1c0.4,4.6-1.7,13.3-1.7,13.3s2.9-3.5,8.9-13.5
		c6-10,15.5-10.4,15.5-10.4c-4.6-4.8-3.5-11-3.5-11S101,159,81.3,150S53,122.8,53,122.8c-17.2-4-15.3-25.3-9.8-31.3s16,2.6,16,2.6
		c-1.7-32.1,30-46.4,51.9-54.5s51.9-26,51.9-26s7,0.9,3.8,10.9c-3.2,10-20.2,24.1-27,25.1l17.7,10.2l46.8-11.9c0,0,4.3,0.2,4.7,6
		s-4.7,10.6-4.7,10.6l-30.2,15.3c0,0,6.6,14.5,4.5,25.8c-2.1,11.3-15.5,33.4-20.9,43s-5.3,17.9-5.3,17.9s2.8-6.4,8.9-3.2
		c0,0,0.4-10.4,14.1-3.2c0,0,5.1-7.2,4.5-12.6c-0.6-5.3-1.9-10,1.7-13.4l-4.3-9.6c0,0,0.4-6.4,4.9-7c4.5-0.6,7.5,12.6,7.5,12.6
		s33.8,10.1,51.2,32.3s14.6,24.9,14.6,24.9s-11.3-17.2-19.4-17.1s-20.9,0.8-21.3,16s3.1,16.8,3.1,16.8s-15.6-14.8-26.8-8.1l-3.1,2
		l-2.7,6.1c0,0,5.3,6.3,5.1,14.2c-0.3,7.9-0.1,12-0.1,12s7.2,13.1,21.3,11.6c14.1-1.5,17.1-4.5,17.1-4.5s-21.3,0.8-18.4-9
		c0.7-2.3,2.8-2.7,5.1-3.3c1.7-0.4,3.4-0.8,5-1.3c0.7-0.2,1.5-0.4,1.9-1c0.7-1.1-0.3-2.4-1.3-3.1c-1-0.7-2.3-1.4-2.5-2.7
		c-0.2-0.9,0.3-1.8,1-2.3s1.5-0.9,2.3-1.3c3.6-1.6,7.2-3.6,9.4-6.9c2.3-3.4,2.9-7.8,2.3-11.8s-2.3-7.9-4.1-11.6
		c4.5,3.9,8.7,8.5,11.6,13.7c0.8,1.5,1.6,3.1,1.3,4.8c-0.2,1.7-1.5,3.1-1.4,4.8c0,1.3,0.9,2.5,1.9,3.4c1.1,0.8,2.3,1.3,3.5,1.9
		c4.6,2,8.8,4.7,12.7,7.9c1,0.9,2.1,2,1.9,3.4c-0.2,1.4-1.7,2.2-3,2.7c-1.9,0.8-3.8,1.6-5.7,2.4c-1,0.4-2.2,1-2.5,2.1
		c-0.6,1.8,1.4,3.2,2.2,5c0.8,1.9-0.1,4.2-1.7,5.5s-3.9,1.5-5.9,1.2c-2-0.3-4-1.1-5.8-2C235.9,237.8,233.4,237.4,231.2,236.5z"/>
	<g>
		<path class="st2" d="M152.7,60.6c-7.7-0.1-15.5-0.3-23.2-0.5l-5.8-0.2c-1.9-0.1-3.9-0.2-5.8-0.2c-3.9,0-7.7,0.4-11.5,1.2
			c-3.7,0.8-7.4,2.1-10.8,3.8c-3.4,1.8-6.5,4-9.1,6.8c-2.6,2.8-4.6,6-6.1,9.5c-1.5,3.5-2.7,7.1-3.4,10.8c-0.1,0.9-0.2,1.9-0.3,2.8
			c0,0.9,0,1.8,0.2,2.7c0.3,1.7,0.9,3.4,2,4.4c1,1.1,2.3,1.6,3.8,1.8c0.4,0,0.8,0,1.2,0c0.4-0.1,0.7,0,1.1-0.1
			c0.7-0.2,1.5-0.4,2.2-0.8c1.4-0.8,2.8-1.9,4.1-3.2c1.3-1.3,2.5-2.8,3.7-4.2c1.2-1.5,2.4-3,3.7-4.5c1.3-1.5,2.8-3,4.3-4.3
			c3-2.6,6.3-4.9,9.8-6.8c3.5-1.9,7.3-3.3,11.3-3.9c4-0.7,8.1-0.2,11.8,1.1c3.7,1.4,6.9,3.8,9.6,6.6c-2.9-2.5-6.3-4.6-9.9-5.6
			c-3.6-1-7.5-1.1-11.1-0.3c-7.3,1.7-13.8,6-19.3,11.1c-1.4,1.3-2.6,2.6-3.8,4.1c-1.2,1.5-2.3,3-3.5,4.6c-1.2,1.5-2.4,3.1-3.8,4.6
			c-1.4,1.5-3,2.9-4.9,4c-1,0.6-2.1,1-3.2,1.3c-0.6,0.1-1.2,0.2-1.8,0.2c-0.6,0-1.2,0-1.7-0.1c-2.3-0.2-4.8-1.6-6.1-3.6
			c-1.4-2-1.7-4.3-1.7-6.4c0-2.1,0.3-4.1,0.7-6.1c0.8-3.9,2.2-7.6,3.9-11.1c1.7-3.6,3.9-6.9,6.7-9.7c2.8-2.8,6.1-5.1,9.6-6.8
			c3.5-1.7,7.3-2.9,11.1-3.7c3.8-0.8,7.7-1.1,11.6-1c1.9,0.1,3.9,0.2,5.8,0.3l5.8,0.3C137.2,60.1,144.9,60.4,152.7,60.6z"/>
	</g>
	<g>
		<path class="st2" d="M52.1,122.4c1.5,0.1,3,0,4.5-0.2c1.5-0.2,2.9-0.5,4.3-1c1.4-0.5,2.7-1.1,3.8-2c1.1-0.9,2-2,2.7-3.1l0.5-0.9
			l0.8,0.7c2.5,2.1,5.4,4,8.2,5.9c2.8,1.9,5.7,3.6,8.8,5.1c3,1.5,6.3,2.6,9.5,3.5c1.7,0.3,3.3,0.8,5,0.9l2.5,0.3l2.5,0
			c6.7,0,13.4-1.5,19.4-4.4c2.9-1.5,5.7-3.4,8-5.7c0.6-0.6,1.1-1.2,1.7-1.8c0.5-0.6,1.1-1.3,1.5-2c0.9-1.3,1.8-2.8,2.4-4.2l0.3-0.7
			l0.6,0.1c1.1,0.2,2.3,0.4,3.5,0.5c1.2,0.1,2.4,0.1,3.5-0.1c1.2-0.1,2.3-0.4,3.4-0.7c1.1-0.4,2.1-1,3.1-1.7l0.1,0.1
			c-0.8,0.9-1.9,1.6-3,2.2c-1.1,0.5-2.3,0.9-3.5,1.1c-1.2,0.2-2.5,0.3-3.7,0.4c-1.2,0-2.5,0-3.7-0.2l0.9-0.5
			c-2.4,6.8-7.9,12-14.2,15.2c-3.2,1.5-6.6,2.5-10,3.2c-0.9,0.2-1.7,0.2-2.6,0.4c-0.9,0.1-1.7,0.3-2.6,0.3c-1.7,0-3.5,0.2-5.2,0
			c-6.9-0.5-13.6-2.5-19.9-5c-6.4-2.5-12.5-5.9-17.7-10.6l1.3-0.2c-0.9,1.4-2,2.6-3.3,3.5c-1.3,0.9-2.8,1.5-4.3,1.9
			c-1.5,0.4-3.1,0.6-4.6,0.6c-1.5,0-3.1-0.1-4.6-0.4L52.1,122.4z"/>
	</g>
	<path class="st3" d="M77.7,123.6c-1.7,2.6-3.4,5.3-5,7.9c-0.1,0.2-0.2,0.3-0.4,0.4c-0.3,0.1-0.6-0.2-0.9-0.5
		c-2.5-3.5-4.2-7.6-4.9-11.8c-0.2-1,0.6-1.8,1.1-2.6c0.2-0.2,0.3-0.5,0.6-0.6c0.4-0.1,0.9,0.1,1.2,0.4C72.4,119,75,121.2,77.7,123.6
		z"/>
	<path class="st0" d="M127.1,76.4c16.3,5.3,15.2,39-9.8,44s-28.2-16.6-28.2-16.6c8.9-4.5,14.4-16.8,23.9-22.3
		C117.1,79,122.3,77.2,127.1,76.4z"/>
	<path class="st4" d="M117.3,255.8c1.2-0.8,2.4-1.8,3.9-1.6c1.1,0.1,2.1,0.9,2.7,1.9c1,1.5,1.3,3.3,1.3,5c0,1.8-0.4,3.5-0.8,5.2
		c2.2,0.4,3.5,2.6,4.6,4.5c1.9-2.8,3.6-5.8,5-8.9c0.9-2,1.7-4.1,1.8-6.3c0-0.5-0.1-1.1-0.4-1.5c-0.4-0.4-1-0.5-1.6-0.6
		c-4.6-0.6-9.1-2-13.3-4c-0.8-0.4-1.6-0.8-2.4-0.8c-0.9,0-1.7,0.4-2.5,0.8c-3.6,1.8-7.2,3.7-10.4,6.2c-1.5,1.2-0.9,2.3,0.8,2.9
		c1.7,0.5,3.8,0.1,5.5-0.3C113.5,257.9,115.5,257,117.3,255.8z"/>
	<path class="st5" d="M176.9,188c-1.4-2.5-1.9-5.5-1.4-8.3c0.1-0.9,0.4-1.8,0.3-2.6c0,0-0.1,0-0.1,0c-0.6-0.3-0.8-0.9-1-1.4
		c-0.1-0.1,0-0.2,0-0.3c-0.7-0.5-1.7-0.6-2.6-0.7c-0.6-0.1-1.4-0.2-1.6-0.9c-0.1-0.3,0-0.6,0-0.9c0.4-2-0.7-4.1-2.3-5.2
		c-1.7-1.1-3.8-1.4-5.8-1c-1.7,0.4-3.5,1.6-3.8,3.3l-0.8,0.4c0.7,2,2.4,3.7,4.4,4.5c-1.7,2.6-1.3,6.2,0.3,8.9
		c1.6,2.7,4.2,4.6,6.8,6.4c1.3,0.8,2.6,1.7,4.1,1.8c1.1,0.1,2.3-0.2,3.3-0.8c0.4-0.2,0.7-0.6,0.9-1
		C177.7,189.4,177.3,188.7,176.9,188z"/>
	<path class="st3" d="M67.2,165.9c1.3-1.2,3.1-1.8,4.9-1.7s3.5,0.9,4.7,2.3c-2,0.5-3.1,3-5.1,3.7c-1.2,0.5-2.6,0.2-3.6-0.7
		C67.2,168.6,66.8,167.1,67.2,165.9z"/>
	<path class="st3" d="M74.3,159.2c2.4-0.9,5-1,7.4-0.1c0.6,0.2,1.3,0.5,1.7,1c0.5,0.5,0.8,1.2,0.6,1.9c-1.2,0.1-2.3,0.7-3,1.7
		c-0.4,0.5-0.7,1.2-1.3,1.3c-0.4,0.1-0.8-0.1-1.2-0.4c-1.9-1.2-3.4-3-4.2-5"/>
	<path class="st3" d="M90.8,167.8c-1.6,0.6-3.6,0.1-4.8-1.1c-0.4-0.4-0.7-0.8-0.7-1.3c0-0.5,0.3-0.9,0.6-1.2
		c0.3-0.3,0.8-0.5,1.2-0.7c1.5-0.7,3.2-0.2,4.7,0.4c0.3,0.1,0.6,0.3,0.6,0.6c0,0.2-0.1,0.4-0.2,0.5
		C91.9,165.7,91.2,167.1,90.8,167.8z"/>
	<path class="st3" d="M173.3,175.2c0,0,4.3-2.3,5.7-5.1c0.7-1.4,0.7-2.5,0.5-3.2c-0.2-0.6-0.7-1-1.3-0.9c-7.7,0.9-10.5,9-10.5,9
		c2.2-1.3,6.7,0.7,6.7,0.7"/>
	<path class="st3" d="M168.6,160.3c0,0,1,6.5-1.6,6.9s-4.5,4.2-4.9,1.3c-0.3-2.8,0-8.2,0-8.2c0.6-1.2,1.4-2.5,2.7-2.9
		c0.9-0.3,2-0.1,2.8,0.6S168.8,159.4,168.6,160.3z"/>
	<path class="st3" d="M161.9,168.9c-0.5,0-0.8,0.3-1.1,0.7s-0.5,0.8-0.9,1c-0.4,0.2-0.9,0.2-1.4,0.2c-2.2-0.1-4.3-0.3-6.5-0.4
		c0-2,1.7-4.2,2.7-5.8c0.9-1.5,3.2-1.8,5-1.9c0.5,0,1,0,1.3,0.4c0.3,0.2,0.4,0.6,0.4,0.9c0.3,1.4,0.4,2.8,0.2,4.2"/>
	<g>
		<path class="st2" d="M155.4,189c1.2,2.2,2.5,4.2,3.9,6.2c1.5,1.9,3.1,3.7,4.8,5.4c1.7,1.6,3.6,3.1,5.6,4.6c2,1.4,4,2.7,6.1,3.9
			l-1,0c2.6-1.4,5-3.2,7.1-5.3c2.1-2.1,3.7-4.7,5.2-7.3c-0.9,2.9-2.2,5.8-4.2,8.2c-1,1.2-2.1,2.3-3.3,3.4c-1.2,1-2.5,1.9-3.8,2.7
			l-0.5,0.3l-0.5-0.3c-2.2-1.2-4.3-2.5-6.3-4c-2-1.5-3.9-3.1-5.7-4.9C159.5,198.1,156.8,193.7,155.4,189z"/>
	</g>
	<g>
		<path class="st2" d="M177.8,225.3c-1.9-4.2-4.3-8.2-7.4-11.3c-3.1-3.2-7-5.3-11.2-5.9c-2.1-0.3-4.2-0.3-6.3,0.3
			c-2.1,0.5-4,1.4-5.9,2.5c-3.6,2.4-6.7,5.9-9.2,9.9c1.3-4.5,4-8.7,7.8-11.7c1.9-1.5,4.2-2.7,6.6-3.4c2.4-0.7,5-0.8,7.5-0.5
			c2.5,0.4,4.9,1.2,7,2.5c2.1,1.3,4,2.9,5.5,4.8C175.2,216.2,177.1,220.7,177.8,225.3z"/>
	</g>
	<path class="st6" d="M177.2,250.1c7,4.5,15.2,7.1,23.5,7.3s16.7-1.9,23.9-6c-5.9,6.3-13.6,10.9-22.1,13c-8.4,2.1-17.4,1.6-25.6-1.4
		c-2-0.7-4-1.6-5.3-3.2c-1.2-1.4-2.1-4.1-1-5.8c0.5-0.8,1.8-1.3,2.7-1.7C174.7,251.6,176,250.8,177.2,250.1z"/>
	<path class="st7" d="M144.1,211.4c1.4-1.4,3.1-2.6,5-3.1c1.9-0.5,4.1-0.3,5.7,1c1.2,1,1.9,2.5,2.1,4s0.2,3.1,0,4.6
		c-0.5,4.2-1.4,8.3-1.4,12.5c-1.5-2.3-3.9-4-6.6-4.6c-1-0.2-2.1-0.3-3.1-0.6c-2.5-0.6-4.8-2.3-6.5-4.2c-1.6-1.8,0.8-4.6,1.9-6.1
		C142,213.5,143,212.4,144.1,211.4z"/>
	<path class="st8" d="M135.2,230.9c1.7-1.3,3.9-1.7,6.1-1.6s4.2,0.7,6.2,1.4c3.8,1.3,7.6,3,10.8,5.5c3.2,2.5,5.9,5.8,7.1,9.7
		c0.4,1.3,0.6,2.6,0.4,3.9c-0.2,1.3-0.8,2.6-1.8,3.4c-1,0.8-2.3,1-3.6,1.1c-3.1,0.2-6.3-0.5-9.2-1.7c-2.9-1.2-5.6-3-8.1-4.8
		c-2.9-2.1-5.8-2.5-8.4-4.9c-0.7-0.6-1.2-3.1-1.6-3.9C131.6,236.4,132.9,232.6,135.2,230.9z"/>
	<path class="st9" d="M104.9,237.5c5.7,7.9,14.4,13.6,24,15.5c2.6,0.5,5.4,0.8,7.7,2.1c2.6,1.5,4.4,4.1,6.5,6.3
		c5.1,5.3,12.3,8,19.5,9.1c7.2,1,14.6,0.4,21.8-0.1c5.4-0.4,10.8-0.9,16-2.3c5.2-1.4,10.2-3.9,13.9-7.9c-12.1,4.1-25.7,3.9-37.2-1.8
		c-1.8-0.9-4-1.6-6.6-3.7c-2.1-0.3-4.5,2.5-6.6,2.6c-6.6,0.4-11.6-4-17.6-6.8c-3.2-1.5-6.5-3.1-9.2-5.6c-2.6-2.4-4.6-5.9-4.3-9.5
		c0.2-3.6,3-7.3,6.6-7.4c-2.1-2.5-2.6-5.8-1.5-8.8c-9.9-5.7-20.9-9.4-32.2-10.9c-2.1-0.3-5.3-0.5-6.9,1c-1.2,1.2-0.9,3.9-0.9,5.4
		c-0.1,5.2,1,10.5,3,15.3C101.9,232.7,103.3,235.2,104.9,237.5z"/>
	<linearGradient id="SVGID_2_" gradientUnits="userSpaceOnUse" x1="124.1239" y1="181.9486" x2="121.6271" y2="229.6373">
		<stop  offset="0" style="stop-color:#FEEEC8"/>
		<stop  offset="1" style="stop-color:#FDBB85"/>
	</linearGradient>
	<path class="st10" d="M122.9,180.1c-19.1-1.4-24.6,21.7-24.6,21.7c-1.9,6.4-0.9,13.4,2.5,19.1c3.4,5.7,9.2,10,15.7,11.4
		c3.8,0.8,8.1,0.7,11.2-1.7c-0.5-0.5-0.4-1.3-0.1-1.9c0.3-0.6,0.9-1,1.5-1.3c2.7-1.6,6.5-1,9.5-0.6c-0.3-2-0.2-4.5,0.4-6.7
		c-0.3-0.1-0.5-0.3-0.4-0.7c0.1-0.3,0.2-0.5,0.4-0.7c0-0.1,0.1-0.2,0.1-0.3c0.1-0.2,0.4-0.3,0.6-0.3c0.3-0.8,0.7-1.5,1.2-2.2
		c2-2.8,4.8-5.2,7.4-7.3C148.6,198.3,142,181.5,122.9,180.1z"/>
	<path class="st11" d="M144,244.3c1.6,1.6,3.8,2.7,6.1,3c0.7,0.1,1.5,0.1,2.1-0.3c1.1-0.7,1.3-2.2,1.1-3.5c-0.5-3.6-3.1-6.8-6.5-8.1
		c-1.3-0.5-2.7-0.7-3.9-0.2C138.8,236.7,142,242.3,144,244.3z"/>
	<path class="st3" d="M133,241.2c-2.1-1-4.4-1.6-6.8-1.8c-0.2,0-0.3,0-0.4-0.2c-0.1-0.1,0-0.3,0-0.4c0.5-1.6,1.4-2.9,2.8-3.9
		c1.3-0.9,3-1.4,4.6-1.4"/>
	<path class="st3" d="M133.8,231.9c-2.2-0.7-4.3-1.5-6.5-2.2c-0.2-0.1-0.3-0.1-0.4-0.3c0-0.1,0.1-0.2,0.1-0.3c2.6-3,7.3-4.1,11-2.5
		c0.4,0.2,0.7,0.6,1.1,0.9"/>
	<path class="st3" d="M139.6,226.3c-0.9-2-2-3.8-3.4-5.4c1.5-0.9,3.4-0.7,5,0.1c1.5,0.8,2.8,2.1,4,3.3c0.4,0.4,0.7,0.8,0.9,1.3
		c-1.7-0.1-3.3,0.2-4.9,0.8"/>
	<path class="st3" d="M107.7,277.1c0.1-2.6-1.3-5.1-3.5-6.4c-1.1,1.5-1.5,3-1.4,4.8c0,1.8,0.6,3.6,1.7,5c0.1,0.2,0.3,0.4,0.5,0.3
		c0.2,0,0.4-0.3,0.5-0.5C106,279.2,107.7,278.2,107.7,277.1z"/>
	<path class="st3" d="M119,279.6c0.6-2.4,0-5.1-1.6-7c-0.7-0.8-1.7-1.5-2.8-1.4c-1.1,0.2-1.9,1.1-2.4,2.1c-1,2-1.3,4.4-0.8,6.6
		c0.3,1.3,1,2.7,1.6,3.9c0.2,0.3,0.4,0.7,0.8,0.8c0.3,0.1,0.7-0.1,1-0.3C116.5,283.3,118.5,281.4,119,279.6z"/>
	<path class="st3" d="M129.6,273.3c-0.1-1.3-0.2-2.6-0.7-3.8c-0.6-1.2-1.6-2.2-2.9-2.3c-1.4-0.1-2.8,0.8-3.4,2
		c-0.6,1.3-0.6,2.8-0.1,4.1s1.4,2.5,2.3,3.5c0.4,0.5,1.1,0.7,1.6,1c0.5,0.3,1.2,0.6,1.7,0.3c0.4-0.2,0.7-0.6,0.9-1
		C129.5,276,129.6,274.6,129.6,273.3z"/>
	<g id="Слой_8">
		<path class="st12" d="M40.3,99.4c-1.2,4.8-0.1,10.2,2.9,14.2c0.4-4.2,0.8-8.4,1.3-12.6c0.1-1.2,0.5-2.8,1.7-2.9
			c0.8-0.1,1.5,0.4,2.1,0.9c1.4,1.1,3,2.1,4.7,2.8c1.4,0.6,3.1,1.1,4.4,0.4c1.6-0.8,2.1-2.9,1.9-4.6c-0.4-3.5-3.1-6.6-6.5-7.6
			c-3.4-1-7.3-0.1-9.9,2.3s-4,6-3.8,9.5"/>
		<path class="st12" d="M96.9,66.7c-3,1.5-5.9,3.2-8.3,5.5c-2.5,2.3-4.5,5.1-5.4,8.3c-0.6,1.9-0.7,4.3,0.8,5.5c1.2,1,3,0.9,4.5,0.4
			c2.4-0.8,4.4-2.6,5.3-4.9c0.9-2.3,0.4-5.2-1.4-6.9c-0.1-0.1,5.2-4.4,5.7-4.7c2.1-1.5,4.3-2.8,6.6-3.9c4.6-2.2,9.6-3.7,14.6-4.4
			c1.4-0.2,2.8-0.3,4.2-0.4c1.1,0,3.3,0.3,4.1-0.1c-3.5-1.1-8.5-0.3-12.1,0.1c-4.1,0.5-8.2,1.4-12.1,2.8
			C101.2,64.8,99,65.7,96.9,66.7z"/>
		<path class="st12" d="M96.8,52.8c9.3-2.8,19.3-3.1,29-2.1c7.6,0.8,15.4,2.4,21.7,6.7c-8.7-2.3-17.5-4.1-26.4-4.5
			c-9-0.3-18.1,1-26.2,4.7c-3.6,1.6-7,3.8-10.3,6c-1.7,1.2-3.3,2.4-4.9,3.6c-1.5,1.1-3.1,2.9-4.8,3.6c-2.1,0.9-1.8-1.1-1-2.2
			c0.9-1.4,2.1-2.8,3.3-4c2.5-2.7,5.4-4.9,8.5-6.9C89.1,55.7,92.9,54,96.8,52.8z"/>
		<path class="st12" d="M158.2,21.3c1.3-0.7,3.1-1.4,4.3-0.4c0.7,0.6,0.9,1.5,1,2.4c0.3,2.9,0,5.9-0.8,8.6c1.4-2,2.8-4.1,3.7-6.4
			c0.9-2.3,1.4-4.8,0.9-7.2c-0.4-1.8-1.6-3.7-3.5-4.1c-1.9-0.5-3.7,0.6-5.4,1.7c-6.9,4.3-13.9,8.4-21.1,12.2
			c-7.3,3.9-14.7,7.4-22.2,10.7c-4,1.7-8.3,4-12.5,5.1c0.8-1,3.7-1,4.9-1.3c1.9-0.4,3.8-0.9,5.7-1.5c3.8-1.1,7.5-2.3,11.2-3.8
			c7.5-2.8,14.7-6.3,21.8-9.9C150.3,25.5,154.3,23.4,158.2,21.3z"/>
		<path class="st12" d="M199.1,49.2c1.3-0.4,2.5-0.9,3.9-1c1.3-0.1,2.7,0.1,3.8,0.9c1.2,0.8,1.9,2.3,2,3.7s-0.2,2.9-0.7,4.3
			c-1.2,3.2-3.3,6.1-6.1,8c1.6-2.4,2.6-5.3,2.6-8.2c0-0.9-0.1-1.8-0.7-2.4c-0.8-0.7-2.1-0.6-3.2-0.3c-14.2,3.2-28.6,7.5-43.1,6.2
			c10.9-2.2,21.7-5,32.4-8.3C193.1,51.1,196.1,50.2,199.1,49.2z"/>
	</g>
	<path class="st13" d="M152.1,92.4c6.2,3.1,10.6,8.3,13.7,14.6c3.1,6.2,4,13.5,2.6,20.3c3.1-4.3,6.4-9,8.5-13.9
		c2.1-4.8,3.2-10.3,1.9-15.5c-1.3-5.1-5.2-9.8-10.4-11c-3-0.7-6.2-0.2-9,0.9S154.5,90.5,152.1,92.4z"/>
	<path class="st14" d="M112.4,160.2c-0.8,2.5,0.5,5.3,2.6,6.8s4.8,2.1,7.4,2.2c6,0.2,12.1-1.9,16.8-5.7c4.7-3.8,7.9-9.4,8.9-15.4
		c-3.6,4-8.6,6.4-13.7,7.9s-10.5,2-15.7,2.8c-2.5,0.4-5.2,0.9-7.1,2.7"/>
	<path class="st13" d="M87.8,171.7c-1.3-0.7-3-0.7-4.3-0.1c-0.4-0.8-1.3-1.2-2.2-1.3c-2.6-0.4-5.4,0.7-7.2,2.7
		c-1.7-0.2-3.3,1-3.9,2.6c-0.6,1.6-0.4,3.4,0.1,5c0.5-1.2,1.5-2.1,2.7-2.5c1.2-0.3,2.6,0.1,3.4,1.1c0.6,0.8,0.7,1.8,0.7,2.8
		c0.1,2.1-0.1,4.2-0.6,6.2c3.3-0.8,6.2-2.7,8.6-5.2c0.7-0.7,1.4-1.5,2.4-1.6c0.7-0.1,1.4,0.2,1.9,0.6c0.5,0.4,1,1,1.4,1.6
		c-0.1-0.1,0.3-1.4,0.4-1.6c0.1-0.6,0.1-1.2,0.1-1.8c0-1.2-0.2-2.3-0.5-3.5C90.2,174.7,89.7,172.7,87.8,171.7z"/>
	<path class="st15" d="M76.7,204.6c3.3,0.3,6.4-1.7,8.7-4.1c3.5-3.7,5.8-8.2,8.1-12.7c2.4-4.5,4.9-9,8.7-12.3
		c3.8-3.3,9.2-5.2,14-3.7c-4.5,3-8.1,7.1-11,11.7c-2.8,4.6-4.8,9.6-6.5,14.8c-1.3,4-2.4,8.2-5.4,11.2c-2.2,2.1-5.1,3.3-8.1,4
		c-2.4,0.6-4.9,0.9-7.3,0.1c-2-0.7-3.6-2.1-5-3.7c-1.7-2-2.9-4.4-3.7-6.9c-0.6-2-1.4-5-0.8-7.1c0.3,0.6,0.4,1.5,0.6,2.2
		c0.4,1.1,1,2.1,1.7,3C72.3,202.9,74.3,204.4,76.7,204.6z"/>
	<path class="st12" d="M134,178c2,0.7,4,1.8,5.3,3.6c0.4,0.6,0.7,1.3,0.3,1.9c-0.3,0.4-0.9,0.5-1.4,0.3c-0.5-0.2-0.9-0.5-1.3-0.9
		c-3.2-2.9-7.4-4.7-11.6-5.3c-1.2-0.2-2.5-0.2-3.7-0.2c0.8-0.4,2.1-0.4,3-0.5c1.1-0.1,2.1-0.1,3.2-0.1
		C129.9,176.9,132,177.3,134,178z"/>
	<path class="st16" d="M117.2,183.5c-2.1,2.5-2.2,6.4-0.5,9.2s4.9,4.5,8.2,4.6c3.3,0.1,6.5-1.2,9-3.3c1.4-1.2,2.6-2.6,3-4.4
		c0.4-2.1-0.6-4.3-2.2-5.8s-3.6-2.3-5.7-2.9C125,179.8,120.1,180,117.2,183.5z"/>
	<path class="st17" d="M149.1,239.3c1.9,2,3,4.9,2.5,7.7c0.7-0.4,1.2-1.2,1.4-2s0.1-1.7-0.1-2.5c-0.5-2.1-1.7-4.1-3.4-5.5
		c-1.7-1.4-3.8-2.3-6-2.4c-0.5,0-2.2,0.3-1.1,0.9c0.7,0.4,1.7,0.5,2.4,0.8C146.5,237.1,148,238.1,149.1,239.3z"/>
	<path class="st18" d="M100.4,253.9c1.1-0.6,2-1.4,2.7-2.3c2.8-3.4,3.7-8.1,2.8-12.5c1.9,2.3,3.7,4.7,5.9,6.7c2.2,2,4.1,3.5,7,4.3
		c-3.4,2.1-6.1,4.3-9.8,5.7c-2.1,0.8-4.4,1.4-6.6,1.3c-1.4-0.1-3.5-0.4-4.6-1.3C96.5,254.7,99.8,254.2,100.4,253.9z"/>
	<path class="st13" d="M177.7,165.6c0.5,0.4,3,0.3,3.5,0.6c1,0.5,2,0.9,2.9,1.5c0.9,0.6,1.5,0,1.9,1.1c0.2-2.6,0.7-3.8,0.9-6.5
		c0-0.2,0-0.4,0-0.6c-0.2-0.5-0.7-0.7-1.2-0.9c-1.4-0.4-2.9-1-4.1-1.8c-1.2-0.8-2.3-2-2.7-3.5c0,0.1-1,1.1-1.1,1.2
		c-0.4,0.4-0.8,0.9-1.1,1.4c-0.5,0.7-1,1.5-0.7,2.3c0.3,0.8,1,1.8,1.5,2.5C178.1,163.8,176.8,164.9,177.7,165.6z"/>
	<path class="st19" d="M188.8,175.9c1.8-2.5,3.7-4.9,5.9-7s4.8-3.9,7.8-4.7c3.6-1,7.5-0.6,11.3,0c3.5,0.5,7.1,1.1,10.2,3
		c1.3,0.9,2.6,2,4.1,2.5c2.5,0.8,5.3-0.1,7.6,1.1c2.9-0.4,5.9,0.5,7.8,2.8c0,0-9.9-14.4-31.8-24.7c-21.8-10.3-23.2-12.3-23.6-1.3
		c-0.3,9.4-1.1,18.7-2.4,21.7C187.2,171.1,188.4,173.4,188.8,175.9z"/>
	<linearGradient id="SVGID_3_" gradientUnits="userSpaceOnUse" x1="208.9584" y1="199.1855" x2="206.632" y2="151.8829">
		<stop  offset="0" style="stop-color:#44DB70"/>
		<stop  offset="1" style="stop-color:#25C3B3"/>
	</linearGradient>
	<path class="st20" d="M186.5,198.5c3.2-3.2,7.7-4.9,12.2-4.5c6.4,0.5,11.7,4.7,17.4,7.7c-0.8-4-1.6-7.9-1.7-12
		c-0.1-4,0.6-8.2,2.5-11.7c2-3.5,5.3-6.4,9.3-7.1c1.3-0.3,3-0.5,3.5-1.7c0.5-1.3-0.6-2.6-1.6-3.4c-7.5-6.1-18.1-8.3-27.4-5.5
		c-3.2,1-6.4,2.5-8.7,4.9c-1.4,1.4-2.5,3.2-3.2,5.1c-0.7,2.2-0.5,3.8-0.1,6c0.8,4.7,0.4,9.6-0.4,14.2
		C187.7,193.2,187.1,195.9,186.5,198.5z"/>
	<path class="st21" d="M219.5,222.9c-2.8,0.2-5.6,1-8,2.5c-0.9,0.5-1.8,1.3-2.1,2.3c-0.2,0.9,0.2,2,0.9,2.7c0.7,0.7,1.5,1.2,2.4,1.6
		c4.5,2.2,9.4,3.5,14.4,3.9c6.5,0.6,11.7,4.6,18.2,5.4c2.3,0.3,5-0.1,6.3-2.1c1.3-2,0.5-4.8-0.9-6.7c-0.6-0.9-1.4-1.9-1.3-3
		c0.2-1.3,1.6-2,2.8-2.4c1.9-0.7,3.7-1.5,5.6-2.2c1.6-0.6,3.5-1.7,3.3-3.5c-0.1-1.2-1.2-2-2.3-2.6c-4.9-3.1-9.9-6.2-14.8-9.3
		c-0.9-0.5-1.7-1.1-2.2-2c-0.9-1.5-0.3-3.5,0-5.2c0.4-3.5-1-7.1-3.1-10c-2.1-2.9-4.9-5.2-7.6-7.5c2.8,4.7,3.5,10.5,2,15.7
		s-5.4,9.7-10.3,12c-0.9,0.4-1.8,0.8-2.5,1.4c-0.7,0.6-1.3,1.5-1.2,2.5c0.1,0.9,0.7,1.5,1.3,2.2c0.6,0.6,1.2,1.3,1.4,2.1
		C221.8,221.4,220.3,222.8,219.5,222.9z"/>
	<path class="st22" d="M221.2,217.2c0.5-0.6,1.3-0.8,2.1-1.1c5.3-1.7,8.8-7,10-12.4c1.2-5.4,0.4-11.1-0.3-16.6
		c5.8,4.7,8.3,13.1,6.1,20.2c-0.4,1.4-1.1,2.8-1,4.3c0.1,2.2,1.8,4,2.6,6.1c1,2.7,0.3,5.9-1.6,7.9c-1.7,1.8-4.1,2.6-6.5,3
		c-2.4,0.4-4.8,0.5-7.2,1c-1,0.2-2.3,0.8-2.3,1.9c0,1.2,1.8,2.1,1.4,3.2c-0.3,0.8-1.3,0.9-2.1,0.9c-2.5-0.1-4.9-0.6-7.2-1.4
		c-1.4-0.5-2.8-1.2-3.9-2.2s-1.7-2.7-1.3-4.1c0.6-2.3,3.4-3.3,5.7-3.8c1.7-0.3,3.9-0.6,5.3-1.8C223.1,220.7,219.6,219.2,221.2,217.2
		z"/>
	<path class="st22" d="M251.9,220.4c-1,2-3.2,3.1-5.2,4.2c-2,1.1-4,2.8-4.1,5.1c0,1.4,0.7,2.7,0.6,4.1c-0.2,2.2-2.4,3.6-4.3,4.6
		c2.3,1.6,5.1,2.4,7.8,2.5c1,0,2-0.1,2.9-0.7c1-0.7,1.4-2.1,1.3-3.3c-0.1-1.2-0.6-2.4-1.1-3.5c-0.6-1.2-1.2-2.7-0.4-3.8
		c0.4-0.6,1.1-0.8,1.7-1.1c2-0.7,4.1-1,6-2.1c1.8-1,3.4-3.1,3-5.1c-0.4-2-2.2-3.3-4-4.3c-1.9-1.2-3.8-2.6-5.9-3.6
		C251.7,215.2,253.2,217.7,251.9,220.4z"/>
</g>
<g id="Слой_6">
	<g>
		<path class="st2" d="M114.5,286.5c-0.4,0-0.7-0.1-1-0.4c-3-2.7-3.8-5.7-4-7.4l-0.3,0c-1.5-0.2-2.2,3.2-2.4,4.1
			c-0.1,0.6-0.5,1.1-1.2,1.3c-0.6,0.1-1.3-0.1-1.6-0.7c-4.7-7.5-2.6-11.7-1.4-13.3c-0.6-4.8,0.3-9.5,0.9-12
			c-6.8-0.2-12.1-2.4-15.6-6.4c-6.1-6.9-4.7-16.8-4.7-17.2c1.3-13.9,9.4-20.4,11.9-22.2l0.1-1.9c-7.4,6.3-16.1,5.7-16.6,5.6
			c-0.2,0-0.4-0.1-0.6-0.2c-12.2-6.6-11.7-22.2-11.7-22.9c0.4-5.9-0.5-8.6-1.4-9.1c-2.6-1.6-6.7-6.6-4-13.9c2-5.3,5.4-7.3,7-8
			c1-2.9,4.8-4.2,5.5-4.4c7.2-2.8,11.3,1.2,12.4,3.6c0.1,0.2,0.1,0.4,0.1,0.6c4.1-1.3,7.9,0.6,9.5,2c0.4,0.4,0.6,1,0.5,1.5
			c-0.2,0.6-0.6,1-1.2,1.1c-2.5,0.4-3.1,3.3-3.2,4c0.1,1,0.8,5.8,1.1,9.9c0.2,1.9-0.1,4.5-0.4,6.9c1.3-2,2.9-4.5,4.8-7.7
			c4.4-7.4,10.5-9.9,14-10.7c-2.1-3.2-2.4-6.6-2.3-8.5c-3.5-0.3-12.8-1.8-28.2-8.9c-18.1-8.3-26.9-23.9-28.7-27.3
			c-8.3-2.2-11.7-8.1-13.1-12.6c-2.5-8.1-0.2-17.2,3.3-21c4.6-5,11.7-1.7,15.5,0.6c0.3-29.6,28.3-43.9,53-53
			c21.5-8,51.4-25.7,51.7-25.9c0.3-0.2,0.6-0.2,0.9-0.2c0.1,0,3,0.4,4.8,3.1c1.5,2.4,1.6,5.6,0.3,9.7c-3,9.3-16.5,21.3-24.8,25
			l14.3,8.2L204,46.4c0.1,0,0.3-0.1,0.4,0c1.9,0.1,5.7,1.8,6.1,7.3c0.5,6.4-4.9,11.6-5.1,11.8c-0.1,0.1-0.2,0.2-0.4,0.3l-29,14.7
			c1.6,3.9,5.8,15.6,4,25.3c-1.8,9.8-11.6,26.9-18.1,38.2c-1.1,2-2.1,3.8-3,5.2c-2.7,4.9-4,9.4-4.6,12.6c0.4-0.3,0.9-0.5,1.3-0.6
			c1.4-0.5,2.9-0.5,4.4-0.1c0.4-1.4,1.3-3.1,3.2-4.2c2.7-1.6,6.6-1.2,11.4,1.2c1.5-2.5,3.9-7.1,3.5-10.4c-0.1-0.7-0.2-1.4-0.3-2.1
			c-0.6-4.3-1.2-8.5,1.7-11.8l-3.9-8.7c-0.1-0.2-0.1-0.5-0.1-0.7c0-0.3,0.6-7.6,6.2-8.4c5-0.7,7.9,8.8,8.9,12.9
			c5.5,1.7,35,11.9,51.1,32.6c8.3,10.6,17.5,24,14.5,26.9c-0.3,0.3-0.8,0.5-1.2,0.4c-0.4-0.1-0.8-0.3-1.1-0.7
			c-3-4.6-12.1-16.4-18-16.4c0,0,0,0-0.1,0c-9.4,0.2-19.5,1.4-19.8,14.5c-0.3,10.9,1.5,14.4,2.2,15.2c0.3,0.2,0.4,0.4,0.5,0.5
			c0.5,0.5,0.6,1.3,0.2,1.9c-0.4,0.6-1.2,0.8-1.9,0.5c-0.2-0.1-0.6-0.4-1-0.8c-3-2.6-15.4-12.6-24.3-7.3l-2.7,1.8l-2.2,4.9
			c1.5,2,5.1,7.6,4.8,14.5c-0.2,6.4-0.2,10.4-0.1,11.5c1.2,1.9,7.8,11.8,19.7,10.5c4.6-0.5,7.9-1.1,10.4-1.8
			c-4.4-0.5-9.6-1.7-12-4.7c-1.3-1.7-1.6-3.7-1-5.9c0.9-3,3.5-3.7,5.9-4.2l5.4-1.3c0.7-0.2,0.9-0.3,1-0.4c0-0.1-0.3-0.7-0.9-1.1
			l-0.4-0.3c-1-0.7-2.4-1.7-2.7-3.4c-0.2-1.3,0.3-2.7,1.5-3.7c0.8-0.7,1.7-1.1,2.6-1.5l0.1,0c3-1.3,6.6-3.2,8.8-6.4
			c1.9-2.8,2.6-6.6,2-10.8c-0.6-4-2.3-7.9-4-11.1c-0.3-0.6-0.1-1.4,0.4-1.9c0.6-0.4,1.4-0.4,1.9,0.1c5.4,4.7,9.3,9.3,11.9,14.1
			c1,1.8,1.8,3.7,1.5,5.8c-0.1,0.9-0.5,1.8-0.8,2.5c-0.3,0.8-0.6,1.5-0.6,2.1c0,0.7,0.5,1.6,1.3,2.2c0.8,0.6,1.8,1,2.8,1.5l0.4,0.2
			c4.7,2.1,9.1,4.8,13,8.1c0.8,0.6,2.8,2.4,2.5,4.7c-0.3,2.4-2.9,3.5-3.9,3.9l-5.7,2.4c-0.5,0.2-1.5,0.6-1.7,1.1
			c-0.1,0.4,0.3,1,0.9,1.9c0.4,0.6,0.9,1.2,1.2,2c1,2.4,0.1,5.5-2.2,7.3c-1.8,1.4-4.3,1.9-7,1.5c-2.3-0.3-4.4-1.3-6.2-2.1
			c-1-0.4-2.1-0.7-3.2-1.1c-0.7-0.2-1.3-0.4-2-0.6c-3.6,12.6-18.5,33.8-53,33.8c-0.1,0-0.2,0-0.4,0c-26.4-0.1-37.7-9.3-41.9-14.2
			c-1.5,5.5-4.8,11.7-5.6,13.2c-0.2,4.4-1.8,7.8-1.8,7.9c-0.3,0.6-0.9,1-1.6,0.8c-2.1-0.3-4-1.2-5-1.7l-1.5,0.7
			c-2,4.7-6,7.1-6.2,7.2C115.1,286.4,114.8,286.5,114.5,286.5z M109.1,275.6c0.2,0,0.4,0,0.6,0l1.5,0.2c0.8,0.1,1.4,0.8,1.3,1.6
			c0,0.1-0.2,2.8,2.2,5.5c1.2-0.9,3.2-2.9,4.2-5.6c0.1-0.4,0.4-0.7,0.8-0.8l2.7-1.3c0.4-0.2,1-0.2,1.4,0.1c0,0,1.7,0.9,3.6,1.5
			c0.4-1.3,1.1-3.5,1.1-6c0-0.2,0.1-0.5,0.2-0.7c0.1-0.1,5.5-10,6.1-16c0.1-0.7,0.6-1.2,1.2-1.3c0.7-0.1,1.3,0.2,1.6,0.8
			c0.1,0.1,8,15.5,41.4,15.6c0.1,0,0.2,0,0.3,0c32.7,0,46.7-19.8,50.1-31.6c-1,0.8-5.2,3.4-17.7,4.7c-14.9,1.6-22.5-11.8-22.8-12.4
			c-0.1-0.2-0.2-0.4-0.2-0.7c0-0.2-0.1-4.2,0.1-12.1c0.3-7.3-4.7-13.1-4.7-13.2c-0.4-0.4-0.5-1.1-0.2-1.6l2.7-6.1
			c0.1-0.3,0.3-0.5,0.6-0.6l3.1-2c8.1-4.8,17.9,0.2,23.7,4.3c-0.5-2.7-0.9-6.5-0.7-11.8c0.5-17.1,15.5-17.3,22.8-17.4
			c0,0,0.1,0,0.1,0c4.6,0,9.7,4.5,13.8,9c-2.1-3.4-5.4-8.1-10.3-14.3c-16.8-21.6-50.1-31.7-50.4-31.8c-0.5-0.2-0.9-0.6-1-1.1
			c-1.3-5.6-4-11.7-5.8-11.4c-2.7,0.4-3.4,4.1-3.6,5.3l4.1,9.2c0.3,0.6,0.1,1.3-0.3,1.7c-2.6,2.4-2.1,5.8-1.5,10
			c0.1,0.7,0.2,1.4,0.3,2.1c0.7,5.8-4.5,13.3-4.7,13.6c-0.4,0.6-1.3,0.8-1.9,0.5c-4.4-2.3-7.8-3-9.7-1.8c-1.9,1.1-2.1,3.7-2.1,3.8
			c0,0.5-0.3,1-0.7,1.2c-0.4,0.3-1,0.3-1.4,0c-1.4-0.7-2.7-0.9-3.9-0.5c-2,0.7-3,2.9-3,3c-0.3,0.7-1,1-1.7,0.9
			c-0.7-0.1-1.2-0.8-1.2-1.5c0-0.4,0.1-8.8,5.5-18.6c0.8-1.5,1.8-3.3,3-5.3c6-10.5,16-28,17.7-37.3c2-10.7-4.3-24.7-4.4-24.9
			c-0.3-0.7,0-1.6,0.7-2l30-15.2c0.8-0.8,4.4-4.9,4.1-9.3c-0.3-3.8-2.4-4.4-3.1-4.6l-46.6,11.9c-0.4,0.1-0.8,0-1.1-0.2l-17.7-10.2
			c-0.6-0.3-0.8-0.9-0.7-1.6s0.6-1.1,1.2-1.2c6.3-1,22.8-14.6,25.8-24.1c1-3.1,1-5.6,0-7.1c-0.7-1-1.6-1.5-2.2-1.7
			c-4.1,2.4-31.4,18.3-51.7,25.8c-24.6,9.1-52.5,23.3-51,53c0,0.6-0.3,1.1-0.8,1.4c-0.5,0.3-1.2,0.2-1.6-0.2
			c-0.1-0.1-9.4-7.6-13.9-2.7c-2.9,3.1-4.7,11.3-2.6,18c1.2,4,4.2,9,11.6,10.8c0.4,0.1,0.8,0.4,1,0.8c0.1,0.2,8.6,17.8,27.5,26.5
			c19.1,8.7,28.4,8.7,28.5,8.7c0.5,0,0.9,0.2,1.2,0.5c0.3,0.3,0.4,0.8,0.3,1.2c0,0.2-0.9,5.5,3.1,9.7c0.4,0.4,0.5,1.1,0.3,1.6
			c-0.2,0.5-0.7,0.9-1.3,0.9c-0.3,0-8.8,0.5-14.2,9.7c-6,10-8.9,13.6-9,13.7c-0.4,0.5-1.2,0.7-1.8,0.4c-0.6-0.3-0.9-1-0.8-1.7
			c0-0.1,2.1-8.5,1.7-12.9c-0.4-4.5-1.1-9.9-1.1-10c0-0.1,0-0.2,0-0.3c0.1-1.4,0.9-3.9,2.7-5.4c-1.5-0.6-3.7-0.8-6,0.6
			c-0.5,0.3-1.2,0.3-1.7-0.1c-0.2-0.2-1.5-1.1-1.4-2.6c0-0.3,0.1-0.8,0.4-1.2c-1-1.2-3.3-3-8.1-1.2c0,0-0.1,0-0.1,0
			c-0.9,0.2-3.5,1.3-3.6,2.8c-0.1,0.6-0.5,1.2-1.2,1.3c-0.1,0-3.8,1-5.9,6.5c-2.1,5.4,0.9,9.1,2.8,10.3c2.3,1.4,3.2,5.3,2.8,11.8
			c0,0.1-0.4,14.1,9.9,20c1.7,0,10.4-0.2,16.5-7.4c0.4-0.5,1.1-0.7,1.7-0.4c0.6,0.2,1,0.8,1,1.5l-0.2,6.5c0,0.5-0.3,1-0.8,1.2
			c-0.4,0.2-9.8,5.9-11.1,20.4c0,0.2-1.2,9,4,14.9c3.3,3.7,8.4,5.5,15.3,5.4c0.5,0,0.9,0.2,1.2,0.6c0.3,0.4,0.4,0.9,0.2,1.4
			c0,0.1-2.2,6.8-1.2,13.3c0.1,0.5-0.1,1-0.5,1.4c-0.1,0.1-2.2,2.1-0.3,6.9C105.9,277,107.2,275.6,109.1,275.6z M231.2,235
			c0.2,0,0.4,0,0.6,0.1c1,0.4,2.1,0.7,3.2,1.1c1.2,0.3,2.4,0.7,3.6,1.2c1.8,0.8,3.6,1.6,5.5,1.8c1.9,0.3,3.6-0.1,4.8-1
			c1.2-0.9,1.7-2.5,1.2-3.7c-0.2-0.4-0.5-0.9-0.9-1.4c-0.9-1.2-1.9-2.7-1.3-4.6c0.6-1.8,2.4-2.6,3.4-3l5.7-2.4
			c0.5-0.2,2-0.8,2.1-1.6c0.1-0.5-0.4-1.1-1.4-2c-3.7-3.1-7.9-5.7-12.3-7.6l-0.4-0.2c-1.2-0.5-2.4-1-3.4-1.9
			c-1.6-1.2-2.5-2.9-2.5-4.5c0-1.3,0.4-2.4,0.9-3.3c0.3-0.6,0.5-1.2,0.6-1.8c0.2-1.2-0.5-2.6-1.2-3.9c-1.5-2.7-3.4-5.4-5.9-8.1
			c0.5,1.6,1,3.3,1.2,5c0.7,4.9-0.2,9.5-2.5,12.9c-2.6,3.8-6.7,5.9-10,7.4l-0.1,0.1c-0.7,0.3-1.3,0.6-1.8,1c-0.3,0.3-0.5,0.7-0.5,1
			c0.1,0.4,0.8,0.9,1.5,1.4l0.4,0.3c1.7,1.2,2.9,3.3,1.8,5.2c-0.7,1.2-2.1,1.5-2.8,1.7l-5.4,1.3c-2.4,0.6-3.4,0.9-3.7,2.2
			c-0.4,1.3-0.2,2.4,0.5,3.3c2.8,3.6,12.8,4,16.5,3.8c0.6,0,1.2,0.3,1.4,0.9c0.1-0.2,0.4-0.4,0.6-0.6C230.7,235.1,231,235,231.2,235
			z"/>
	</g>
	<g>
		<path class="st23" d="M114.9,93.9c7-3,14.2-5.9,21.8-6c-1.2-3.8-2.6-7.9-6-10c-2-1.2-4.4-1.6-6.7-1.4s-4.5,0.9-6.7,1.9
			c-6.3,2.7-11.9,6.9-16.8,11.8c-1.2,1.2-2.4,2.5-3.5,3.8c-0.8,0.9-2.9,2.7-3,3.9c-0.3,3.5,7,1.1,8.5,0.7
			C106.8,97.4,110.9,95.7,114.9,93.9z"/>
	</g>
	<g>
		<path class="st2" d="M89.6,54.1c0,0,39-11.3,63.1,6.5c0,0,2.6,1.9,8.1,0l-5-1.8l-15.9-9.2c0,0,10.5-5,14.9-9.2
			c4.4-4.2,7.3-7.6,7.3-7.6s-18.1,14.5-29.1,14.3S100.1,48.1,89.6,54.1z"/>
	</g>
	<g>
		<path class="st2" d="M152.7,60.6c-7.7-0.1-15.5-0.3-23.2-0.5l-5.8-0.2c-1.9-0.1-3.9-0.2-5.8-0.2c-3.9,0-7.7,0.4-11.5,1.2
			c-3.7,0.8-7.4,2.1-10.8,3.8c-3.4,1.8-6.5,4-9.1,6.8c-2.6,2.8-4.6,6-6.1,9.5c-1.5,3.5-2.7,7.1-3.4,10.8c-0.1,0.9-0.2,1.9-0.3,2.8
			c0,0.9,0,1.8,0.2,2.7c0.3,1.7,0.9,3.4,2,4.4c1,1.1,2.3,1.6,3.8,1.8c0.4,0,0.8,0,1.2,0c0.4-0.1,0.7,0,1.1-0.1
			c0.7-0.2,1.5-0.4,2.2-0.8c1.4-0.8,2.8-1.9,4.1-3.2c1.3-1.3,2.5-2.8,3.7-4.2c1.2-1.5,2.4-3,3.7-4.5c1.3-1.5,2.8-3,4.3-4.3
			c3-2.6,6.3-4.9,9.8-6.8c3.5-1.9,7.3-3.3,11.3-3.9c4-0.7,8.1-0.2,11.8,1.1c3.7,1.4,6.9,3.8,9.6,6.6c-2.9-2.5-6.3-4.6-9.9-5.6
			c-3.6-1-7.5-1.1-11.1-0.3c-7.3,1.7-13.8,6-19.3,11.1c-1.4,1.3-2.6,2.6-3.8,4.1c-1.2,1.5-2.3,3-3.5,4.6c-1.2,1.5-2.4,3.1-3.8,4.6
			c-1.4,1.5-3,2.9-4.9,4c-1,0.6-2.1,1-3.2,1.3c-0.6,0.1-1.2,0.2-1.8,0.2c-0.6,0-1.2,0-1.7-0.1c-2.3-0.2-4.8-1.6-6.1-3.6
			c-1.4-2-1.7-4.3-1.7-6.4c0-2.1,0.3-4.1,0.7-6.1c0.8-3.9,2.2-7.6,3.9-11.1c1.7-3.6,3.9-6.9,6.7-9.7c2.8-2.8,6.1-5.1,9.6-6.8
			c3.5-1.7,7.3-2.9,11.1-3.7c3.8-0.8,7.7-1.1,11.6-1c1.9,0.1,3.9,0.2,5.8,0.3l5.8,0.3C137.2,60.1,144.9,60.4,152.7,60.6z"/>
	</g>
	<g>
		<path class="st2" d="M57.1,106c0.7-0.3,1.7-0.4,2.2,0.2c0.4,0.5,0.1,1.3-0.4,1.8c-0.5,0.5-1.2,0.7-1.8,0.9
			c-1.9,0.7-3.2,2.1-4.8,3.1C50.9,109.8,55.4,106.6,57.1,106z"/>
	</g>
	<g>
		<path class="st2" d="M61.3,100.1c0.4-7,2.4-13.8,5.8-19.9c-2.7,2.6-4.9,5.8-6.5,9.2c-0.6,1.2-1.2,2.6-2.5,3
			c-1.5,0.5-2.6-0.7-3.8-1.3C56.8,94,59.3,96.8,61.3,100.1z"/>
	</g>
	<g>
		<path class="st2" d="M52.1,122.4c1.5,0.1,3,0,4.5-0.2c1.5-0.2,2.9-0.5,4.3-1c1.4-0.5,2.7-1.1,3.8-2c1.1-0.9,2-2,2.7-3.1l0.5-0.9
			l0.8,0.7c2.5,2.1,5.4,4,8.2,5.9c2.8,1.9,5.7,3.6,8.8,5.1c3,1.5,6.3,2.6,9.5,3.5c1.7,0.3,3.3,0.8,5,0.9l2.5,0.3l2.5,0
			c6.7,0,13.4-1.5,19.4-4.4c2.9-1.5,5.7-3.4,8-5.7c0.6-0.6,1.1-1.2,1.7-1.8c0.5-0.6,1.1-1.3,1.5-2c0.9-1.3,1.8-2.8,2.4-4.2l0.3-0.7
			l0.6,0.1c1.1,0.2,2.3,0.4,3.5,0.5c1.2,0.1,2.4,0.1,3.5-0.1c1.2-0.1,2.3-0.4,3.4-0.7c1.1-0.4,2.1-1,3.1-1.7l0.1,0.1
			c-0.8,0.9-1.9,1.6-3,2.2c-1.1,0.5-2.3,0.9-3.5,1.1c-1.2,0.2-2.5,0.3-3.7,0.4c-1.2,0-2.5,0-3.7-0.2l0.9-0.5
			c-2.4,6.8-7.9,12-14.2,15.2c-3.2,1.5-6.6,2.5-10,3.2c-0.9,0.2-1.7,0.2-2.6,0.4c-0.9,0.1-1.7,0.3-2.6,0.3c-1.7,0-3.5,0.2-5.2,0
			c-6.9-0.5-13.6-2.5-19.9-5c-6.4-2.5-12.5-5.9-17.7-10.6l1.3-0.2c-0.9,1.4-2,2.6-3.3,3.5c-1.3,0.9-2.8,1.5-4.3,1.9
			c-1.5,0.4-3.1,0.6-4.6,0.6c-1.5,0-3.1-0.1-4.6-0.4L52.1,122.4z"/>
	</g>
	<g>
		<path class="st2" d="M94.4,155.3c0,0,23.8,3.8,38.5-1s21.3-16.6,21.3-20.4c-3.6,28.2-31.9,26.3-34.5,27.2s-4,2-3.9,4.7
			c0.1,1.9,1.2,3.6,2.4,5.1c1.2,1.5,2.6,2.9,3.3,4.7c-2.1-1.4-4.2-2.8-6.5-3.7s-4.9-1.3-7.3-0.6c1.5-0.2,2.9-0.6,4.2-1.4
			c0.4-0.2,0.9-0.5,1-1c0.1-0.5,0-1-0.2-1.4c-1.1-3-1.3-6.2-1.6-9.3C105.5,157.7,99.9,155.3,94.4,155.3z"/>
	</g>
	<g>
		<path class="st2" d="M72.1,132.9c-0.4,0-1-0.2-1.5-0.9c-2.6-3.6-4.6-8.4-5.3-12.8l2-0.3c0.7,4,2.5,8.4,4.8,11.8l4.8-7.5l1.7,1.1
			l-5,7.9c-0.1,0.2-0.4,0.6-0.9,0.8C72.5,132.9,72.3,132.9,72.1,132.9z"/>
	</g>
	<g>
		<path class="st2" d="M89.1,103.7c1.2,3.8,3.2,7.3,5.9,10c2.6,2.7,6.1,4.4,9.7,5.2c3.6,0.7,7.4,0.5,11.2-0.2
			c1.9-0.3,3.6-0.8,5.4-1.5c1.7-0.7,3.3-1.6,4.8-2.6c6.1-4.1,9.7-11.3,10.3-18.8c0.3-3.7-0.1-7.6-1.6-11.1c-1.4-3.5-4-6.6-7.7-8.3
			c2,0.4,3.8,1.3,5.5,2.6c1.6,1.3,2.9,3,4,4.8c2,3.7,3,7.9,2.9,12.1c0,4.2-1.1,8.4-2.9,12.3c-1,1.9-2.2,3.7-3.5,5.3
			c-1.4,1.6-3,3.1-4.8,4.4c-1.8,1.2-3.7,2.2-5.7,3c-2,0.7-4.1,1.3-6.1,1.6c-2.1,0.3-4.2,0.5-6.3,0.4c-2.1,0-4.2-0.3-6.3-0.9
			c-2-0.6-4-1.4-5.8-2.6c-1.8-1.2-3.3-2.6-4.6-4.3C90.9,111.7,89.4,107.7,89.1,103.7z"/>
	</g>
	<g>
		<path class="st24" d="M136.6,102.2c0,10.4-10.1,18.8-18.2,18.8s-11.2-8.4-11.2-18.8s6.6-18.9,14.7-18.9S136.6,91.8,136.6,102.2z"
			/>
	</g>
	<g>
		<circle class="st0" cx="110.4" cy="99.2" r="4.4"/>
	</g>
	<g>
		<path class="st25" d="M131.2,97.2c-1,2.7-2.2,5.3-4.2,7.4c-1.9,2.1-4.5,3.7-7.4,4s-5.9-0.9-7.4-3.3c-0.9,2.2-1.1,5,0.2,7
			c1.2,2,3.5,3.3,5.8,3.5c2,0.1,4-0.6,5.8-1.6c2.9-1.7,5.3-4.4,6.7-7.5c1.4-3.1,1.8-6.7,1.1-10C131.5,96.9,131.4,97.1,131.2,97.2z"
			/>
	</g>
	<g>
		<path class="st2" d="M70.5,171.4c-1.1,0-2.3-0.4-3.1-1.2c-1.2-1.2-1.7-3-1.2-4.6l0.1-0.3l0.2-0.2c1.5-1.4,3.6-2.1,5.7-2
			c2.1,0.1,4,1.1,5.4,2.6l1.1,1.3l-1.7,0.4c-0.8,0.2-1.5,0.9-2.2,1.6c-0.8,0.8-1.6,1.6-2.7,2C71.6,171.3,71,171.4,70.5,171.4z
			 M68.1,166.5c-0.1,0.8,0.2,1.7,0.8,2.3c0.7,0.6,1.7,0.8,2.5,0.5c0.7-0.3,1.3-0.9,2-1.6c0.5-0.5,1-1,1.6-1.5c-0.9-0.6-1.9-1-3-1
			C70.6,165.1,69.2,165.6,68.1,166.5z"/>
	</g>
	<g>
		<path class="st2" d="M79.7,165.9c-0.6,0-1.1-0.3-1.5-0.5c-2.1-1.3-3.7-3.3-4.6-5.5l1.9-0.7c0.8,1.9,2.1,3.5,3.8,4.6
			c0.3,0.2,0.4,0.2,0.5,0.2c0.1,0,0.3-0.4,0.4-0.6c0.1-0.1,0.1-0.2,0.2-0.3c0.8-1.2,2.2-2,3.7-2.1l0.1,2c-0.9,0.1-1.7,0.5-2.2,1.3
			l-0.2,0.3c-0.4,0.5-0.8,1.3-1.8,1.5C79.9,165.9,79.8,165.9,79.7,165.9z"/>
	</g>
	<g>
		<path class="st2" d="M89.3,169.1c-1.5,0-3-0.6-4.1-1.6c-0.6-0.6-1-1.3-1-2c0-0.7,0.3-1.4,0.9-1.9c0.4-0.4,1-0.6,1.4-0.9l0.9,1.8
			c-0.4,0.2-0.7,0.3-0.9,0.6c-0.2,0.1-0.3,0.3-0.3,0.5c0,0.2,0.1,0.4,0.4,0.6c1,1,2.5,1.3,3.8,0.9l0.6,1.9
			C90.6,169,89.9,169.1,89.3,169.1z"/>
	</g>
	<g>
		<path class="st2" d="M72.4,176.8c2.1,0.9,3.6,2.8,4.3,4.9c0.7,2.1,0.6,4.5-0.1,6.6c2.6-2.4,3.5-6.5,2.1-9.8
			c-0.1-0.3-0.3-0.7-0.2-1.1c0.2-0.4,0.6-0.5,1-0.6c1.8-0.4,3.8-0.9,4.8-2.5c0.9-1.3,0.7-3.1,0.2-4.6c-0.7-2.2-2.1-4.1-4-5.5
			c0.7,1.2,1.3,2.5,1.6,3.9c0.3,1.4,0.1,2.9-0.8,4c-0.8,1-2.1,1.5-3.4,1.7c-1.3,0.3-2.6,0.3-3.8,0.8c0.7-0.2,0.4-2.6,0.3-3.1
			c-0.2-0.8-0.7-2.2-1.6-2.4c-0.1,0.4,0.1,0.8,0.2,1.1c0.1,0.7,0.2,1.4,0.2,2.1C73.3,173.9,73,175.4,72.4,176.8z"/>
	</g>
	<g>
		<path class="st2" d="M243.4,173.4c-2.5-3-5.3-5.8-8.3-8.4c-3-2.6-6.1-5-9.3-7.2c-3.3-2.2-6.6-4.2-10.1-6
			c-3.5-1.8-7.1-3.4-10.6-5.1c-3.6-1.7-7.1-3.5-10.7-4.9c-0.9-0.3-1.8-0.6-2.6-0.8c-0.4,0-0.8-0.1-1.1,0c-0.3,0.1-0.5,0.2-0.7,0.5
			c-0.4,0.5-0.6,1.5-0.7,2.4c-0.1,0.9-0.2,1.9-0.3,2.9c-0.2,3.9-0.5,7.9-1,11.9c-0.2,2-0.5,3.9-0.9,5.9c-0.2,1-0.4,1.9-0.7,2.9
			c-0.1,0.5-0.3,1-0.5,1.4c-0.2,0.4-0.4,0.9-0.8,1.2c0.4-0.3,0.5-0.8,0.7-1.3c0.2-0.5,0.3-0.9,0.3-1.4c0.2-1,0.3-1.9,0.4-2.9
			c0.2-2,0.4-3.9,0.4-5.9c0.2-3.9,0.3-7.9,0.4-11.8c0-1,0.1-2,0.2-3c0.1-1,0.2-2.1,1-3.2c0.4-0.6,1-1,1.7-1.2
			c0.7-0.2,1.3-0.1,1.8-0.1c1.1,0.2,2.1,0.5,3.1,0.8c3.8,1.4,7.3,3.2,10.9,4.9c3.5,1.7,7.1,3.4,10.7,5.3c3.5,1.9,6.9,4.1,10.1,6.4
			C233,161.3,238.9,166.8,243.4,173.4z"/>
	</g>
	<g>
		<path class="st2" d="M175.4,160c1.5,1.5,2.5,3.5,2.8,5.7l-0.5-0.5c1.8,0,3.6,0.3,5.3,1.1c1.7,0.7,3.2,1.9,4.3,3.4
			c1.2,1.5,1.8,3.3,2.1,5.1c0.3,1.7,0.5,3.5,0.5,5.2c0,1.7,0,3.5-0.2,5.2c-0.1,1.7-0.4,3.5-0.7,5.2c-0.3,1.7-0.7,3.4-1.3,5
			c-0.6,1.6-1.2,3.3-2.3,4.7c0.7-1.6,1.1-3.2,1.4-4.9c0.3-1.7,0.6-3.3,0.7-5c0.4-3.4,0.5-6.8,0.3-10.1c-0.1-1.7-0.3-3.3-0.5-5
			c-0.3-1.6-0.8-3.1-1.7-4.4c-1.7-2.6-4.9-4.1-8.1-4.5l-0.5-0.1l0-0.4c0-1-0.2-2-0.5-3C176.4,161.8,176,160.9,175.4,160z"/>
	</g>
	<g>
		<path class="st2" d="M173.3,175.2c1.8-1.4,3.6-2.9,4.7-4.7c0.5-0.9,0.8-1.9,0.8-2.8c0-0.2-0.1-0.5-0.1-0.6c0-0.1-0.1-0.1-0.2-0.2
			c-0.1,0-0.2,0-0.2,0l-0.8,0.2c-2,0.4-3.9,1.5-5.4,3c-0.8,0.7-1.4,1.6-2,2.5c-0.6,0.9-1.2,1.9-1.5,2.8l-1.3-1
			c0.7-0.4,1.4-0.5,2.1-0.5c0.7,0,1.3,0.1,1.9,0.2c0.6,0.1,1.2,0.3,1.8,0.5c0.6,0.2,1.1,0.4,1.7,0.7l0.2,0.1l0.1,0.2
			c0.1,0.3,0.2,0.7,0.4,0.9c0.2,0.3,0.4,0.5,0.8,0.7c0.6,0.3,1.4,0.4,2.2,0.4c-0.7,0.3-1.6,0.4-2.4,0.1c-0.4-0.1-0.8-0.4-1.1-0.7
			c-0.3-0.3-0.5-0.7-0.7-1.1l0.3,0.3c-1.1-0.3-2.2-0.6-3.3-0.7c-1.1-0.1-2.2,0-2.8,0.4L166,177l0.8-2.4c0.8-2.3,2.1-4.4,3.8-6.1
			c1.7-1.7,4-3,6.4-3.4l0.9-0.1c0.5-0.1,1,0.1,1.4,0.3c0.4,0.3,0.7,0.7,0.8,1.1c0.1,0.4,0.1,0.7,0.1,1.1c-0.1,1.4-0.6,2.5-1.4,3.5
			c-0.8,1-1.7,1.7-2.6,2.4C175.4,174.2,174.4,174.8,173.3,175.2z"/>
	</g>
	<g>
		<path class="st2" d="M162.2,160.3c0.3,1.9,0.5,3.7,0.6,5.5c0.1,0.9,0.2,1.8,0.3,2.6c0,0.1,0,0.2,0.1,0.2c0,0.1,0,0.1,0,0.1
			c0,0,0,0,0-0.1c0,0,0,0-0.1-0.1c-0.1-0.1-0.2-0.1-0.2-0.1c0,0-0.1,0-0.1,0c0,0,0,0,0.1,0c0.1,0,0.1-0.1,0.2-0.1
			c0.2-0.1,0.3-0.2,0.5-0.4c0.7-0.6,1.5-1.2,2.6-1.6c0.3-0.1,0.6-0.1,0.8-0.2c0.1,0,0.2,0,0.2-0.1c0.1,0,0.2-0.2,0.3-0.2
			c0.1-0.1,0.2-0.3,0.3-0.4c0.3-0.7,0.5-1.6,0.6-2.5c0.1-0.9,0.2-1.8,0.3-2.7c0.3,0.9,0.5,1.8,0.7,2.8c0.1,1,0.1,1.9-0.1,3
			c0,0.3-0.2,0.5-0.3,0.8c-0.2,0.3-0.3,0.5-0.7,0.8c-0.3,0.3-0.6,0.4-1,0.5c-0.2,0.1-0.3,0.1-0.5,0.2c-0.6,0.3-1.3,0.8-2,1.4
			c-0.2,0.1-0.4,0.3-0.6,0.4c-0.2,0.1-0.5,0.3-1,0.5c-0.2,0-0.3,0-0.5,0c-0.2,0-0.4-0.1-0.6-0.2c-0.2-0.1-0.3-0.2-0.4-0.3
			c-0.1-0.1-0.2-0.3-0.2-0.3c-0.1-0.2-0.2-0.4-0.2-0.5l-0.1-0.4c-0.1-1-0.1-1.9,0-2.9C161.4,164,161.7,162.2,162.2,160.3z"/>
	</g>
	<g>
		<path class="st2" d="M167.9,167.5c0.4-0.2,0.7-0.3,1-0.3c0.3,0,0.5,0.1,0.7,0.2c0.2,0.1,0.4,0.3,0.5,0.6c0.1,0.3,0.2,0.6,0.2,1.1
			c-0.4,0.2-0.8,0.3-1,0.3c-0.3,0-0.5-0.1-0.7-0.2c-0.2-0.1-0.4-0.3-0.5-0.6C168,168.2,167.9,167.9,167.9,167.5z"/>
	</g>
	<g>
		<path class="st2" d="M176.3,177.3c-0.2,1.2-0.3,2.3-0.2,3.4c0,1.1,0.1,2.2,0.3,3.2c0.2,1,0.6,2,1,3c0.4,1,1,2,1.6,3
			c-1.2-0.4-2.2-1.2-3-2.2c-0.8-1-1.3-2.2-1.6-3.5c-0.3-1.3-0.2-2.6,0.1-3.8C174.8,179.3,175.4,178.2,176.3,177.3z"/>
	</g>
	<g>
		<path class="st2" d="M154.7,164.5c-0.3,1.1-0.8,2.1-1.2,3.1c-0.2,0.5-0.4,1-0.5,1.4c-0.1,0.5-0.2,0.9-0.2,1.3l-0.9-0.9
			c1.8,0,3.5,0.1,5.3,0.4c0.4,0.1,0.9,0.1,1.3,0.2c0.4,0.1,0.7,0.1,0.9,0.1c0.3-0.1,0.6-0.4,0.9-0.7c0.4-0.3,0.9-0.6,1.4-0.4
			c-0.5,0.1-0.7,0.5-0.8,0.9c-0.2,0.4-0.3,0.9-0.9,1.3c-0.5,0.4-1.2,0.4-1.6,0.5c-0.5,0-0.9,0-1.3,0c-1.8,0-3.5-0.1-5.3-0.3
			l-0.9-0.1l0.1-0.8c0-0.7,0.2-1.3,0.5-1.9c0.3-0.5,0.6-1.1,0.9-1.5C153.1,166,153.9,165.3,154.7,164.5z"/>
	</g>
	<g>
		<path class="st2" d="M158.1,170.9c1,1.7,2.6,3,4.3,3.5l0.6,0.2l-0.3,0.7c-1,2.1-1,4.5-0.3,6.7c0.3,1.1,0.9,2.1,1.6,2.9
			c0.4,0.4,0.7,0.8,1.2,1.2c0.5,0.4,1,0.9,1.4,1.6c0.4,0.7,0.6,1.4,0.7,2.1c0.1,0.6,0.2,1.2,0.3,1.8c0.3,1.1,0.6,2.3,1.1,3.4
			c1,2.2,2.3,4.2,4.1,6c-2.2-1.3-4-3.2-5.3-5.4c-0.6-1.1-1.2-2.3-1.6-3.6c-0.4-1.3-0.5-2.6-1-3.3c-0.2-0.4-0.6-0.7-1.1-1.1
			c-0.5-0.4-1-0.9-1.4-1.4c-0.9-1.1-1.5-2.3-1.9-3.6c-0.3-1.3-0.5-2.7-0.3-4c0.2-1.3,0.6-2.6,1.4-3.8l0.3,0.8
			C160.1,174.6,158.6,172.8,158.1,170.9z"/>
	</g>
	<g>
		<path class="st2" d="M179.4,136.2c0.1-0.6,0.3-1.1,0.6-1.6c0.3-0.4,0.7-0.8,1.1-1.1c0.4-0.3,0.9-0.5,1.4-0.6
			c0.5-0.1,1.1-0.1,1.7,0.1c-0.3,0.6-0.6,1-1,1.3c-0.3,0.3-0.7,0.6-1.1,0.9c-0.4,0.2-0.8,0.4-1.2,0.6
			C180.6,136,180.1,136.2,179.4,136.2z"/>
	</g>
	<g>
		<path class="st2" d="M155.6,187.5c0.4,0.5,0.6,1.1,0.8,1.6c0.2,0.6,0.2,1.2,0.1,1.8l-0.1,0.8l-0.9,0c-0.7,0-1.3-0.1-2-0.3
			c-0.7-0.2-1.3-0.5-1.9-1c0.7-0.4,1.4-0.6,2.1-0.7c0.7-0.1,1.3-0.1,2,0l-1.1,0.8c0.1-0.5,0.2-0.9,0.4-1.4
			C155.1,188.6,155.3,188,155.6,187.5z"/>
	</g>
	<g>
		<path class="st2" d="M155.4,189c1.2,2.2,2.5,4.2,3.9,6.2c1.5,1.9,3.1,3.7,4.8,5.4c1.7,1.6,3.6,3.1,5.6,4.6c2,1.4,4,2.7,6.1,3.9
			l-1,0c2.6-1.4,5-3.2,7.1-5.3c2.1-2.1,3.7-4.7,5.2-7.3c-0.9,2.9-2.2,5.8-4.2,8.2c-1,1.2-2.1,2.3-3.3,3.4c-1.2,1-2.5,1.9-3.8,2.7
			l-0.5,0.3l-0.5-0.3c-2.2-1.2-4.3-2.5-6.3-4c-2-1.5-3.9-3.1-5.7-4.9C159.5,198.1,156.8,193.7,155.4,189z"/>
	</g>
	<g>
		<path class="st2" d="M177.8,225.3c-1.9-4.2-4.3-8.2-7.4-11.3c-3.1-3.2-7-5.3-11.2-5.9c-2.1-0.3-4.2-0.3-6.3,0.3
			c-2.1,0.5-4,1.4-5.9,2.5c-3.6,2.4-6.7,5.9-9.2,9.9c1.3-4.5,4-8.7,7.8-11.7c1.9-1.5,4.2-2.7,6.6-3.4c2.4-0.7,5-0.8,7.5-0.5
			c2.5,0.4,4.9,1.2,7,2.5c2.1,1.3,4,2.9,5.5,4.8C175.2,216.2,177.1,220.7,177.8,225.3z"/>
	</g>
	<g>
		<path class="st2" d="M96.9,210c-1.3-1.6-1.2-3.2-1-4.7c0.1-1.5,0.4-3,0.8-4.5c0.8-3,1.9-5.9,3.1-8.7c1.2-2.8,2.7-5.5,4.3-8
			c1.7-2.5,3.8-4.8,6-6.8l-1.4,1.8c-0.2,0.3-0.5,0.6-0.7,0.9l-0.6,0.9c-0.4,0.6-0.9,1.2-1.2,1.9l-1.1,1.9c-1.4,2.6-2.6,5.3-3.4,8.2
			c-0.9,2.8-1.5,5.7-2,8.6l-0.8,4.3C98.6,207.2,98.3,208.6,96.9,210z"/>
	</g>
	<g>
		<path class="st2" d="M98.3,201.8c0.6-3.2,1.8-6.3,3.3-9.2c1.5-2.9,3.4-5.7,5.9-8c2.4-2.3,5.5-4,8.8-4.9c1.7-0.4,3.4-0.6,5.1-0.6
			c1.7,0,3.4,0.3,5,0.5c3.3,0.7,6.5,1.8,9.4,3.6c2.9,1.8,5.3,4.2,7.3,6.9c3.8,5.5,5.7,12.2,5.1,18.7c-0.1-3.3-0.7-6.5-1.8-9.5
			c-1.1-3-2.6-5.9-4.5-8.3c-2-2.5-4.3-4.7-7-6.2c-2.7-1.6-5.7-2.6-8.8-3.2c-1.6-0.2-3.1-0.5-4.7-0.5c-1.6,0-3.1,0.2-4.6,0.5
			c-3,0.7-5.8,2.2-8.2,4.2c-2.4,2-4.4,4.6-6.1,7.3C100.7,195.7,99.4,198.7,98.3,201.8z"/>
	</g>
	<g>
		<path class="st2" d="M163.6,236.8c-2.8-2.5-5.6-4.9-8.5-7c-1.5-1.1-3-2.1-4.6-2.9c-0.4-0.2-0.8-0.4-1.2-0.5
			c-0.4-0.1-0.8-0.3-1.2-0.3c-0.7-0.1-1.7,0-2.5,0.1c-3.5,0.6-6.9,2.1-9.5,4.5c-1.3,1.2-2.2,2.6-2.5,4.2c-0.3,1.6,0,3.3,0.6,4.9
			c0.3,0.8,0.7,1.5,1.2,2.2c0.3,0.3,0.5,0.6,0.8,0.9c0.3,0.3,0.7,0.5,1,0.8c1.5,1,3,2,4.6,3c3.1,1.9,6.3,3.7,9.5,5.5
			c1.6,0.9,3.2,1.7,4.9,2.5c0.4,0.2,0.8,0.4,1.2,0.6c0.4,0.2,0.7,0.3,1.2,0.5c0.9,0.3,1.7,0.6,2.5,0.7c3.4,0.7,6.7-1,9.3-3.4
			l0.1-0.1l0.2-0.1c1.9-0.6,3.9-1.4,5.6-2.5c1.8-1,3.5-2.3,5-3.7c1.5-1.4,2.9-3,4.1-4.8c1.2-1.7,2.1-3.7,2.9-5.6c-0.4,1-0.6,2-1.1,3
			c-0.4,1-0.9,2-1.4,2.9c-1,1.9-2.4,3.6-3.8,5.2c-1.5,1.6-3.2,3-5,4.1c-1.8,1.2-3.7,2.2-5.9,2.9l0.3-0.2c-1.4,1.3-2.9,2.5-4.7,3.3
			c-1.8,0.8-3.9,1.1-5.9,0.8c-1-0.2-1.9-0.5-2.8-0.7c-0.4-0.1-0.9-0.3-1.4-0.5c-0.4-0.2-0.9-0.4-1.3-0.6c-1.7-0.8-3.3-1.7-5-2.5
			c-3.3-1.7-6.5-3.5-9.7-5.5c-1.6-1-3.2-2-4.7-3.1c-0.4-0.3-0.8-0.6-1.2-0.9c-0.4-0.4-0.8-0.7-1.1-1.1c-0.6-0.8-1.1-1.7-1.5-2.6
			c-0.7-1.9-1-3.9-0.6-6c0.2-1,0.6-2,1.2-2.8c0.6-0.9,1.2-1.6,2-2.2c1.5-1.3,3.2-2.3,4.9-3c1.8-0.8,3.6-1.3,5.5-1.5
			c1-0.1,1.9-0.2,3,0c0.5,0.1,1,0.3,1.4,0.5c0.4,0.2,0.9,0.4,1.3,0.6c1.7,0.9,3.1,2.1,4.6,3.2C158.4,231.5,161.1,234.1,163.6,236.8z
			"/>
	</g>
	<g>
		<path class="st2" d="M169.7,254.1c0-0.7,0.1-1.4,0.2-2c0.1-0.6,0.3-1.2,0.4-1.7c0.2-0.6,0.4-1.1,0.6-1.7c0.2-0.6,0.5-1.1,0.9-1.7
			c0.4,0.6,0.6,1.3,0.6,2c0,0.7,0,1.4-0.2,2c-0.2,0.6-0.5,1.3-0.9,1.8C170.9,253.3,170.4,253.8,169.7,254.1z"/>
	</g>
	<g>
		<path class="st2" d="M144,244.3c1.2,1.1,2.6,1.9,4.1,2.4c0.8,0.2,1.6,0.3,2.3,0.3c0.8,0,1.5-0.2,1.8-0.7c0.4-0.5,0.4-1.2,0.4-1.9
			c-0.1-0.7-0.3-1.4-0.5-2.1c-0.5-1.4-1.3-2.6-2.4-3.7c-1-1.1-2.2-1.9-3.6-2.5c-1.3-0.5-2.8-0.7-4,0.1c-0.5,0.4-0.9,1-1,1.8
			c-0.1,0.7,0.1,1.5,0.3,2.3C142,241.7,142.9,243.1,144,244.3z M144,244.3c-0.6-0.6-1.1-1.2-1.5-1.9c-0.4-0.7-0.9-1.4-1.2-2.1
			c-0.3-0.7-0.6-1.5-0.6-2.4c-0.1-0.9,0.2-1.8,0.9-2.5c0.7-0.7,1.6-1.1,2.5-1.2c0.9-0.1,1.8,0,2.7,0.2c0.8,0.3,1.7,0.6,2.4,1.1
			c0.7,0.5,1.4,1,2.1,1.7c1.2,1.3,2.1,2.8,2.6,4.5c0.2,0.9,0.3,1.7,0.3,2.6c-0.1,0.9-0.3,1.9-1,2.6c-0.4,0.4-0.8,0.6-1.3,0.7
			c-0.5,0.1-0.9,0.1-1.3,0c-0.8-0.1-1.6-0.4-2.4-0.7C146.5,246.3,145.1,245.4,144,244.3z"/>
	</g>
	<g>
		<path class="st2" d="M133,241.2c-1.5-0.2-2.9-0.5-4.3-0.6c-0.7-0.1-1.4-0.1-2.1-0.1l-0.3,0c-0.1,0-0.2,0-0.3,0
			c-0.2,0-0.5-0.1-0.8-0.4c-0.3-0.3-0.4-0.8-0.4-1c0-0.3,0.1-0.4,0.1-0.5l0.1-0.3c0.1-0.2,0.1-0.4,0.2-0.6c0.7-1.5,1.9-2.8,3.3-3.6
			c1.5-0.7,3.2-0.9,4.6-0.5c-1.5,0.4-2.7,1-3.8,1.8c-1,0.8-1.8,1.9-2.3,3c-0.1,0.1-0.1,0.3-0.2,0.4l-0.1,0.2c0,0.1,0,0.1,0,0.1
			c0,0,0-0.3-0.2-0.5c-0.2-0.2-0.3-0.2-0.3-0.2l0.5,0.1c0.8,0.1,1.5,0.3,2.3,0.5C130.5,239.5,131.9,240.2,133,241.2z"/>
	</g>
	<g>
		<path class="st2" d="M133.8,231.9c-1.7-0.1-3.3-0.5-4.9-0.9c-0.4-0.1-0.8-0.2-1.2-0.3l-0.6-0.2c-0.1,0-0.3-0.1-0.5-0.2
			c-0.1-0.1-0.3-0.2-0.4-0.4c-0.1-0.2-0.2-0.5-0.2-0.7c0.1-0.5,0.3-0.7,0.4-0.8l0.2-0.3c0.2-0.2,0.3-0.3,0.5-0.5
			c0.3-0.3,0.7-0.6,1-0.9c1.5-1,3.3-1.6,5-1.7c1.8-0.1,3.6,0.4,4.9,1.4c-1.7-0.2-3.2-0.2-4.7,0.1c-1.5,0.3-2.9,0.9-4.1,1.8
			c-0.3,0.2-0.6,0.4-0.9,0.7c-0.1,0.1-0.3,0.3-0.4,0.4l-0.2,0.2c-0.1,0,0,0,0.1-0.3c0-0.1,0-0.3-0.1-0.4c-0.1-0.1-0.1-0.2-0.2-0.2
			c-0.1,0-0.1,0,0.1,0l0.6,0.2c0.4,0.1,0.8,0.3,1.1,0.5C130.9,230.2,132.3,230.9,133.8,231.9z"/>
	</g>
	<g>
		<path class="st2" d="M139.6,226.3l-2.1-2.5c-0.7-0.8-1.4-1.6-2.1-2.3l-0.8-0.8l1-0.6c0.9-0.6,2-0.8,3-0.7c1,0.1,2,0.4,2.8,0.9
			c0.8,0.5,1.5,1.1,2.1,1.8c0.6,0.7,1.1,1.4,1.5,2.2c-0.8-0.4-1.5-0.9-2.2-1.4c-0.7-0.4-1.4-0.8-2.1-1.1c-0.7-0.3-1.4-0.4-2.1-0.5
			c-0.7,0-1.4,0.1-1.9,0.4l0.2-1.4c0.7,0.9,1.3,1.8,1.7,2.9C139.1,224.1,139.5,225.2,139.6,226.3z"/>
	</g>
	<g>
		<path class="st2" d="M97.7,207.3c0.6,6.2,1.8,12.1,4,17.6c2.1,5.5,5,10.8,8.8,15.2c1.9,2.2,4,4.2,6.4,5.9c2.3,1.7,4.9,3,7.7,4
			c5.5,2,11.6,2.9,17.7,3.3c-6.1,1.2-12.4,1.2-18.6-0.4c-1.5-0.4-3.1-0.9-4.6-1.6c-1.5-0.6-2.9-1.4-4.3-2.3c-2.7-1.8-5.2-4-7.3-6.4
			c-4.2-4.9-7.1-10.7-8.7-16.8C97,219.8,96.6,213.4,97.7,207.3z"/>
	</g>
	<g>
		<path class="st2" d="M170.3,254.4c3.8,2.2,7.7,4,11.8,5.3c4.1,1.3,8.3,2.1,12.5,2.3c4.2,0.2,8.5-0.1,12.7-1
			c4.2-0.9,8.3-2.3,12.2-4.1c-3.5,2.6-7.6,4.4-11.9,5.6c-4.3,1.2-8.7,1.7-13.2,1.5c-4.4-0.2-8.8-1.2-13-2.8
			C177.4,259.5,173.6,257.3,170.3,254.4z"/>
	</g>
	<g>
		<path class="st2" d="M108.7,277.1l-2-0.1c0.1-2.2-1.1-4.4-3-5.5l1-1.7C107.3,271.3,108.8,274.2,108.7,277.1z"/>
	</g>
	<g>
		<path class="st2" d="M110.5,280.1c-0.6-2.4-0.3-5.1,0.8-7.3c0.8-1.6,1.9-2.5,3.1-2.6c1.3-0.2,2.6,0.5,3.7,1.7
			c1.8,2.1,2.5,5.2,1.8,7.9l-1.9-0.5c0.6-2.1,0-4.5-1.4-6.1c-0.6-0.7-1.3-1.1-1.9-1.1c-0.8,0.1-1.3,1-1.6,1.6
			c-0.9,1.8-1.2,4-0.7,5.9L110.5,280.1z"/>
	</g>
	<g>
		<path class="st2" d="M124,277.5c-1.3-1.4-2.1-2.6-2.5-3.8c-0.6-1.7-0.6-3.5,0.1-4.9c0.8-1.7,2.7-2.8,4.4-2.6
			c1.5,0.2,3,1.3,3.7,2.9c0.6,1.3,0.8,2.8,0.8,4.2l-2,0.1c0-1.2-0.2-2.4-0.6-3.4c-0.5-1-1.3-1.7-2.2-1.8c-0.9-0.1-1.9,0.5-2.4,1.5
			c-0.5,0.9-0.5,2.1,0,3.3c0.4,1,1,2,2.1,3.2L124,277.5z"/>
	</g>
	<g>
		<path class="st2" d="M113.8,253.4c-2.6,2.4-5.4,4.4-8.5,6c0.8-0.4-5.2-4.7-2.8-4.4C106.3,254.6,110.3,254.9,113.8,253.4z"/>
	</g>
	<g>
		<path class="st2" d="M192,145.6c1.8-1.6,4.2-2.6,6.6-2.8c-2-0.8-4.1-1.6-6.1-2.3c-0.5-0.2-1.1-0.4-1.7-0.2c-0.8,0.3-1.1,1.2-1.3,2
			c-0.7,3-1.5,6.4-1.2,9.5c0.6-0.9,0.8-2.2,1.3-3.2C190.2,147.4,191,146.4,192,145.6z"/>
	</g>
	<g>
		<path class="st2" d="M185.2,73.3c-3.3,2.5-7,4.5-10.9,5.9c5.6,9.4,6.3,21.5,1.9,31.5c1.4-4.3,0.8-9.2-1.5-13.1
			c-2.3-3.9-6.4-6.7-10.8-7.6c-4.5-0.8-9.2,0.3-12.8,3.1c11.3-8.2,21.4-16.1,36-20.5"/>
	</g>
</g>
</svg>
